<svg width="40" height="39" viewBox="0 0 40 39" fill="none" xmlns="http://www.w3.org/2000/svg">
<path fill-rule="evenodd" clip-rule="evenodd" d="M19.94 0C14.6518 0.00066289 9.58034 2.10169 5.84101 5.84101C2.10169 9.58034 0.00066289 14.6518 0 19.94C0 28.745 5.74999 36.2074 13.5775 38.8999C14.5575 39.0224 14.9225 38.4099 14.9225 37.9199V34.4949C9.41999 35.7199 8.19749 31.8049 8.19749 31.8049C7.33999 29.48 5.99499 28.8675 5.99499 28.8675C4.15999 27.645 6.11499 27.645 6.11499 27.645C8.07249 27.7675 9.17499 29.725 9.17499 29.725C11.01 32.7824 13.8225 31.9249 14.925 31.4374C15.045 30.0925 15.6575 29.2375 16.1475 28.7475C11.7425 28.2575 7.09499 26.545 7.09499 18.8375C7.09499 16.6375 7.82749 14.9225 9.17499 13.455C9.04999 13.0875 8.31749 11.01 9.41999 8.31749C9.41999 8.31749 11.1325 7.82749 14.9225 10.3975C16.5125 9.90748 18.2275 9.78498 19.94 9.78498C21.6525 9.78498 23.365 10.03 24.955 10.3975C28.7475 7.82999 30.46 8.31749 30.46 8.31749C31.56 11.01 30.825 13.0875 30.7025 13.5775C32.0497 15.0452 32.7926 16.9677 32.7825 18.96C32.7825 26.6675 28.1325 28.2575 23.7325 28.7475C24.465 29.3575 25.0775 30.5799 25.0775 32.4149V37.9199C25.0775 38.4099 25.4425 39.0199 26.4225 38.8999C30.3875 37.5618 33.8316 35.0113 36.2681 31.609C38.7045 28.2067 40.01 24.1247 39.9999 19.94C39.8774 8.92999 30.95 0 19.94 0Z" fill="white"/>
</svg>
