<svg width="575" height="545" viewBox="0 0 575 545" fill="none" xmlns="http://www.w3.org/2000/svg">
<g clip-path="url(#clip0)">
<path d="M475.312 412.668C483.922 405.791 491.184 390.543 482.403 378.36C478.049 372.318 471.229 370.279 464.941 369.839C456.243 369.23 447.705 371.461 439.959 374.639C431.024 378.305 422.793 383.451 414.646 388.631C406.603 393.746 398.505 398.745 390.188 403.374C357.638 421.47 322.731 435.066 286.674 443.691C277.774 445.817 268.787 447.632 259.714 449.134C251.179 450.694 242.589 451.692 234.009 452.122C222.562 452.499 203.336 451.807 197.716 436.497C194.736 428.38 196.972 419.737 200.138 412.963C203.965 404.774 209.62 397.918 215.172 391.232C240.997 360.133 266.973 329.189 292.874 298.169C298.92 290.93 305.061 283.763 310.587 276.008C315.761 268.747 320.601 260.86 323.275 251.834C325.611 243.951 326.529 234.405 322.462 226.117C319.089 219.243 312.799 215.014 306.41 212.643C290.59 206.773 273.352 209.457 258.557 213.559C240.175 218.657 222.897 226.757 204.551 231.958C189.737 236.158 173.005 238.714 157.07 233.819C150.406 231.913 144.614 228.259 140.349 223.271C136.112 217.938 133.883 211.364 133.971 204.456C133.981 196.575 136.411 189.165 139.526 182.571C143.136 175.063 147.916 168.013 153.7 161.666C165.814 148.166 180.149 137.381 193.33 125.204C199.794 119.231 206.226 112.99 211.336 105.535C215.665 99.2197 219.955 91.4299 219.979 82.8187C220.028 65.0518 199.605 64.0302 188.795 65.0812C181.495 65.8971 174.228 67.2761 167.071 69.2036C165.547 69.5898 164.976 66.8228 166.492 66.4383C174.019 64.3928 181.672 62.9786 189.354 62.2134C195.915 61.6701 202.958 61.6947 209.543 64.3266C212.532 65.5071 215.165 67.2829 217.27 69.5387C219.375 71.7945 220.905 74.4798 221.762 77.4204C223.866 84.9497 221.327 92.6975 218.401 98.8177C214.532 106.911 208.946 113.627 202.969 119.768C196.675 126.235 189.92 132.141 183.147 138.002C169.614 149.714 155.156 161.273 145.47 177.255C138.694 188.435 131.077 207.017 141.499 220.758C146.125 226.858 153.021 230.093 159.612 231.762C167.288 233.588 175.38 234.069 183.496 233.183C219.94 229.789 250.535 205.713 288.052 206.707C300.808 207.045 317.768 210.591 324.801 225.363C328.455 233.036 328.298 241.715 326.632 249.296C324.636 258.376 320.315 266.422 315.499 273.71C310.353 281.224 304.757 288.487 298.74 295.459C292.247 303.245 285.749 311.027 279.248 318.804L239.809 366.037L220.213 389.505C214.233 396.668 207.987 403.776 203.485 412.29C199.8 419.26 196.369 429.472 201.053 437.969C204.772 444.717 212.309 447.316 218.62 448.459C226.792 449.939 235.001 449.529 242.954 448.659C252.127 447.655 261.215 446.131 270.213 444.374C288.641 440.768 306.86 435.83 324.699 429.605C342.497 423.405 359.872 415.971 376.666 407.369C385.152 403.022 393.481 398.376 401.653 393.429C410.076 388.328 418.22 382.729 426.807 377.919C434.573 373.568 442.757 369.906 451.563 368.094C458.916 366.582 467.22 366.131 474.812 369.281C480.476 371.748 484.789 376.14 486.939 381.631C489.088 387.11 489.35 393.211 487.691 399.139C486.017 405.185 482.281 410.72 477.064 414.885C475.834 415.867 474.077 413.655 475.312 412.668L475.312 412.668Z" fill="#E6E6E6"/>
<path d="M331.518 252.93C340.642 248.649 344.569 237.783 340.289 228.659C336.009 219.534 325.142 215.607 316.018 219.888C306.894 224.168 302.967 235.034 307.247 244.159C311.527 253.283 322.394 257.21 331.518 252.93Z" fill="#E6E6E6"/>
<path d="M152.102 225.685C161.226 221.405 165.153 210.538 160.873 201.414C156.593 192.29 145.726 188.363 136.602 192.643C127.478 196.923 123.551 207.79 127.831 216.914C132.111 226.038 142.977 229.965 152.102 225.685Z" fill="#E6E6E6"/>
<path d="M372.716 307.627H243.675V304.968H185.163V307.627H55.5906C54.4444 307.627 53.3093 307.853 52.2503 308.291C51.1913 308.73 50.2291 309.372 49.4185 310.183C48.608 310.993 47.9651 311.955 47.5264 313.014C47.0878 314.072 46.862 315.207 46.862 316.353V492.995C46.862 495.31 47.7816 497.529 49.4185 499.165C51.0555 500.802 53.2756 501.721 55.5906 501.721H372.716C375.031 501.721 377.251 500.802 378.888 499.165C380.525 497.529 381.444 495.31 381.444 492.995V316.353C381.444 315.207 381.219 314.072 380.78 313.014C380.341 311.955 379.698 310.993 378.888 310.183C378.077 309.372 377.115 308.73 376.056 308.291C374.997 307.853 373.862 307.627 372.716 307.627Z" fill="#3F3D56"/>
<path d="M369.742 323.048H58.5643V498.531H369.742V323.048Z" fill="#F2F2F2"/>
<path d="M194.82 414.636C199.1 414.636 202.57 411.167 202.57 406.887C202.57 402.608 199.1 399.139 194.82 399.139C190.539 399.139 187.069 402.608 187.069 406.887C187.069 411.167 190.539 414.636 194.82 414.636Z" fill="#11B9C4"/>
<path d="M215.488 413.048C218.891 413.048 221.65 410.29 221.65 406.887C221.65 403.485 218.891 400.727 215.488 400.727C212.085 400.727 209.326 403.485 209.326 406.887C209.326 410.29 212.085 413.048 215.488 413.048Z" fill="#11B9C4"/>
<path d="M236.156 410.927C238.388 410.927 240.197 409.119 240.197 406.887C240.197 404.656 238.388 402.847 236.156 402.847C233.924 402.847 232.115 404.656 232.115 406.887C232.115 409.119 233.924 410.927 236.156 410.927Z" fill="#11B9C4"/>
<path d="M213.887 318.262C215.65 318.262 217.079 316.834 217.079 315.072C217.079 313.31 215.65 311.881 213.887 311.881C212.125 311.881 210.696 313.31 210.696 315.072C210.696 316.834 212.125 318.262 213.887 318.262Z" fill="#11B9C4"/>
<path d="M390.182 495.342H359.813V493.154C359.813 493.097 359.801 493.041 359.78 492.988C359.758 492.936 359.726 492.888 359.686 492.847C359.645 492.807 359.597 492.775 359.545 492.753C359.492 492.732 359.436 492.72 359.379 492.72H348.967C348.91 492.72 348.853 492.732 348.801 492.753C348.748 492.775 348.7 492.807 348.66 492.847C348.62 492.888 348.588 492.936 348.566 492.988C348.544 493.041 348.533 493.097 348.533 493.154V495.342H342.025V493.154C342.025 493.097 342.014 493.041 341.992 492.988C341.97 492.936 341.938 492.888 341.898 492.847C341.858 492.807 341.81 492.775 341.757 492.753C341.705 492.732 341.648 492.72 341.591 492.72H331.179C331.122 492.72 331.066 492.732 331.013 492.753C330.96 492.775 330.913 492.807 330.872 492.847C330.832 492.888 330.8 492.936 330.778 492.988C330.757 493.041 330.745 493.097 330.745 493.154V495.342H324.238V493.154C324.238 493.097 324.226 493.041 324.205 492.988C324.183 492.936 324.151 492.888 324.111 492.847C324.07 492.807 324.022 492.775 323.97 492.753C323.917 492.732 323.861 492.72 323.804 492.72H313.392C313.335 492.72 313.278 492.732 313.226 492.753C313.173 492.775 313.125 492.807 313.085 492.847C313.045 492.888 313.013 492.936 312.991 492.988C312.969 493.041 312.958 493.097 312.958 493.154V495.342H306.45V493.154C306.45 493.097 306.439 493.041 306.417 492.988C306.395 492.936 306.363 492.888 306.323 492.847C306.283 492.807 306.235 492.775 306.182 492.753C306.13 492.732 306.073 492.72 306.016 492.72H295.604C295.547 492.72 295.491 492.732 295.438 492.753C295.385 492.775 295.338 492.807 295.297 492.847C295.257 492.888 295.225 492.936 295.203 492.988C295.181 493.041 295.17 493.097 295.17 493.154V495.342H288.663V493.154C288.663 493.097 288.651 493.041 288.63 492.988C288.608 492.936 288.576 492.888 288.536 492.847C288.495 492.807 288.447 492.775 288.395 492.753C288.342 492.732 288.286 492.72 288.229 492.72H277.817C277.76 492.72 277.703 492.732 277.651 492.753C277.598 492.775 277.55 492.807 277.51 492.847C277.47 492.888 277.438 492.936 277.416 492.988C277.394 493.041 277.383 493.097 277.383 493.154V495.342H270.875V493.154C270.875 493.097 270.864 493.041 270.842 492.988C270.82 492.936 270.788 492.888 270.748 492.847C270.708 492.807 270.66 492.775 270.607 492.753C270.555 492.732 270.498 492.72 270.441 492.72H260.029C259.972 492.72 259.916 492.732 259.863 492.753C259.81 492.775 259.763 492.807 259.722 492.847C259.682 492.888 259.65 492.936 259.628 492.988C259.606 493.041 259.595 493.097 259.595 493.154V495.342H253.088V493.154C253.088 493.097 253.076 493.041 253.055 492.988C253.033 492.936 253.001 492.888 252.961 492.847C252.92 492.807 252.872 492.775 252.82 492.753C252.767 492.732 252.711 492.72 252.654 492.72H171.092C171.035 492.72 170.978 492.732 170.925 492.753C170.873 492.775 170.825 492.807 170.785 492.847C170.744 492.888 170.713 492.936 170.691 492.988C170.669 493.041 170.658 493.097 170.658 493.154V495.342H164.15V493.154C164.15 493.097 164.139 493.041 164.117 492.988C164.095 492.936 164.063 492.888 164.023 492.847C163.983 492.807 163.935 492.775 163.882 492.753C163.83 492.732 163.773 492.72 163.716 492.72H153.304C153.247 492.72 153.191 492.732 153.138 492.753C153.085 492.775 153.038 492.807 152.997 492.847C152.957 492.888 152.925 492.936 152.903 492.988C152.881 493.041 152.87 493.097 152.87 493.154V495.342H146.363V493.154C146.363 493.097 146.351 493.041 146.33 492.988C146.308 492.936 146.276 492.888 146.235 492.847C146.195 492.807 146.147 492.775 146.095 492.753C146.042 492.732 145.986 492.72 145.929 492.72H135.517C135.46 492.72 135.403 492.732 135.35 492.753C135.298 492.775 135.25 492.807 135.21 492.847C135.169 492.888 135.138 492.936 135.116 492.988C135.094 493.041 135.083 493.097 135.083 493.154V495.342H128.575V493.154C128.575 493.097 128.564 493.041 128.542 492.988C128.52 492.936 128.488 492.888 128.448 492.847C128.408 492.807 128.36 492.775 128.307 492.753C128.255 492.732 128.198 492.72 128.141 492.72H117.729C117.672 492.72 117.616 492.732 117.563 492.753C117.51 492.775 117.463 492.807 117.422 492.847C117.382 492.888 117.35 492.936 117.328 492.988C117.306 493.041 117.295 493.097 117.295 493.154V495.342H110.788V493.154C110.788 493.097 110.776 493.041 110.755 492.988C110.733 492.936 110.701 492.888 110.66 492.847C110.62 492.807 110.572 492.775 110.52 492.753C110.467 492.732 110.411 492.72 110.354 492.72H99.9415C99.8845 492.72 99.8281 492.732 99.7755 492.753C99.7228 492.775 99.675 492.807 99.6347 492.847C99.5944 492.888 99.5625 492.936 99.5407 492.988C99.5189 493.041 99.5077 493.097 99.5077 493.154V495.342H93V493.154C93 493.097 92.9888 493.041 92.967 492.988C92.9452 492.936 92.9132 492.888 92.873 492.847C92.8327 492.807 92.7848 492.775 92.7322 492.753C92.6796 492.732 92.6232 492.72 92.5662 492.72H82.154C82.097 492.72 82.0406 492.732 81.988 492.753C81.9353 492.775 81.8875 492.807 81.8472 492.847C81.8069 492.888 81.775 492.936 81.7532 492.988C81.7314 493.041 81.7202 493.097 81.7202 493.154V495.342H75.2125V493.154C75.2125 493.097 75.2013 493.041 75.1795 492.988C75.1577 492.936 75.1257 492.888 75.0855 492.847C75.0452 492.807 74.9973 492.775 74.9447 492.753C74.8921 492.732 74.8357 492.72 74.7787 492.72H64.3665C64.3095 492.72 64.2531 492.732 64.2005 492.753C64.1478 492.775 64.1 492.807 64.0597 492.847C64.0194 492.888 63.9875 492.936 63.9657 492.988C63.9438 493.041 63.9326 493.097 63.9326 493.154V495.342H43.9759C41.2144 495.342 38.5661 496.438 36.6134 498.39C34.6607 500.342 33.5637 502.99 33.5637 505.751V510.458C33.5637 513.218 34.6607 515.866 36.6134 517.818C38.5661 519.77 41.2144 520.867 43.9759 520.867H390.182C392.943 520.867 395.591 519.77 397.544 517.818C399.497 515.866 400.594 513.218 400.594 510.458V505.751C400.594 504.384 400.325 503.03 399.801 501.767C399.278 500.504 398.511 499.357 397.544 498.39C396.577 497.424 395.429 496.657 394.166 496.134C392.903 495.611 391.549 495.342 390.182 495.342Z" fill="#3F3D56"/>
<path d="M271.398 336.792H184.078V340.036H271.398V336.792Z" fill="#E6E6E6"/>
<path d="M271.398 347.064H184.078V350.308H271.398V347.064Z" fill="#E6E6E6"/>
<path d="M271.398 357.336H184.078V360.579H271.398V357.336Z" fill="#E6E6E6"/>
<path d="M271.398 336.792H184.078V340.036H271.398V336.792Z" fill="#CCCCCC"/>
<path d="M271.398 347.064H184.078V350.308H271.398V347.064Z" fill="#CCCCCC"/>
<path d="M271.398 357.336H184.078V360.579H271.398V357.336Z" fill="#CCCCCC"/>
<path d="M176.171 338.797H156.388V358.575H176.171V338.797Z" fill="#CCCCCC"/>
<path d="M271.398 452.369H184.078V455.612H271.398V452.369Z" fill="#CCCCCC"/>
<path d="M271.398 462.641H184.078V465.885H271.398V462.641Z" fill="#CCCCCC"/>
<path d="M271.398 472.912H184.078V476.157H271.398V472.912Z" fill="#CCCCCC"/>
<path d="M176.171 454.374H156.388V474.152H176.171V454.374Z" fill="#CCCCCC"/>
<path d="M15.8934 296.021C13.2791 303.14 13.2056 310.945 15.6853 318.113L11.633 316.586L13.1026 319.829L18.6509 321.917L20.7374 316.368L19.2678 313.126L17.8712 316.843C15.4874 309.552 15.9365 301.63 19.129 294.657C22.3215 287.683 28.0233 282.168 35.099 279.211C42.1746 276.253 50.1051 276.07 57.3112 278.697C64.5173 281.325 70.4704 286.57 73.985 293.389L76.1824 292.256C73.2458 286.56 68.7146 281.843 63.1422 278.68C57.5698 275.516 51.1974 274.045 44.8033 274.444C38.4093 274.844 32.2704 277.097 27.1365 280.929C22.0025 284.76 18.0958 290.005 15.8934 296.021Z" fill="#3F3D56"/>
<path d="M425.37 169.132L451.158 131.703C451.158 131.703 473.613 113.703 467.177 110.198C460.741 106.693 443.891 123.125 443.891 123.125C443.891 123.125 395.278 160.382 403.295 165.582C411.311 170.781 425.37 169.132 425.37 169.132Z" fill="#FFB8B8"/>
<path d="M429.118 119.979H462.514C464.793 106.808 464.793 93.3435 462.514 80.1726H429.118C432.881 93.1748 432.881 106.977 429.118 119.979Z" fill="#11B9C4"/>
<path d="M515.944 121.878C505.908 104.925 486.053 104.135 486.053 104.135C486.053 104.135 466.705 101.662 454.293 127.481C442.725 151.546 426.759 174.781 451.723 180.415L456.232 166.384L459.025 181.459C462.579 181.715 466.145 181.776 469.706 181.642C496.441 180.779 521.901 181.894 521.081 172.304C519.992 159.554 525.6 138.189 515.944 121.878Z" fill="#2F2E41"/>
<path d="M462.583 226.375L449.727 255.935L494.723 263.004C494.723 263.004 515.936 234.087 517.864 232.159L462.583 226.375Z" fill="#FFB8B8"/>
<path d="M483.796 162.114C496.931 162.114 507.579 151.469 507.579 138.338C507.579 125.207 496.931 114.562 483.796 114.562C470.661 114.562 460.013 125.207 460.013 138.338C460.013 151.469 470.661 162.114 483.796 162.114Z" fill="#FFB8B8"/>
<path d="M478.01 155.688C478.01 155.688 488.938 180.108 487.652 182.678C486.367 185.248 510.794 169.183 510.794 169.183C510.794 169.183 500.509 151.833 501.152 149.262L478.01 155.688Z" fill="#FFB8B8"/>
<path d="M514.007 165.97C514.007 165.97 533.291 155.046 544.218 185.248C544.218 185.248 580.215 227.66 573.787 235.372C567.359 243.083 542.933 216.736 542.933 216.736L527.506 200.671C527.506 200.671 505.651 194.887 507.579 182.678C509.508 170.468 514.007 165.97 514.007 165.97Z" fill="#FFB8B8"/>
<path d="M469.012 180.75L424.016 167.898C424.016 167.898 400.232 158.259 400.875 164.042C401.518 169.826 444.585 202.599 458.727 200.671C472.868 198.743 469.012 180.75 469.012 180.75Z" fill="#FFB8B8"/>
<path d="M494.723 176.252C494.723 176.252 479.939 174.324 476.725 177.537C473.511 180.75 467.404 177.858 467.404 177.858L457.12 196.494C457.12 196.494 449.728 207.097 455.513 217.379C461.298 227.661 452.942 241.155 452.942 241.155C452.942 241.155 499.222 241.155 508.864 246.296C518.506 251.437 530.126 203.401 530.126 203.401C530.126 203.401 518.184 188.783 521.398 179.786C524.612 170.79 522.684 163.721 522.684 163.721L508.543 165.006L494.723 176.252Z" fill="#D0CDE1"/>
<path d="M439.442 460.285L444.585 509.765L464.512 499.484L458.084 456.429L439.442 460.285Z" fill="#FFB8B8"/>
<path d="M514.649 459.642L531.383 504.374L547.454 492.808L527.506 449.361L514.649 459.642Z" fill="#FFB8B8"/>
<path d="M464.512 482.776C463.501 486.397 461.987 489.858 460.012 493.057C456.798 498.198 449.085 495.628 449.085 495.628C449.085 495.628 440.086 488.559 438.157 491.772C436.229 494.985 425.944 511.05 425.944 511.05C425.944 511.05 391.876 539.325 420.802 543.824C449.728 548.322 455.513 527.116 455.513 527.116C455.513 527.116 477.368 519.404 478.011 511.693C478.654 503.982 464.512 482.776 464.512 482.776Z" fill="#2F2E41"/>
<path d="M532.005 492.144C532.005 492.144 521.72 488.931 522.363 494.072C523.006 499.213 526.863 519.776 526.863 519.776C526.863 519.776 519.792 548.693 539.719 543.553C559.645 538.412 560.288 510.78 560.288 510.78C560.288 510.78 570.573 474.152 562.859 473.509C555.146 472.866 536.505 470.939 536.505 470.939C536.505 470.939 548.075 489.574 532.005 492.144Z" fill="#2F2E41"/>
<path d="M511.506 120.244L491.89 109.972L464.802 114.174L459.197 138.92L473.148 138.383L477.046 129.292V138.234L483.483 137.986L487.219 123.512L489.555 138.92L512.439 138.453L511.506 120.244Z" fill="#2F2E41"/>
<path d="M501.795 261.076L447.799 248.867C447.799 248.867 420.802 295.134 416.945 333.691C413.088 372.247 395.732 464.783 423.373 466.068C451.014 467.353 467.084 467.353 468.369 464.783C469.655 462.213 454.87 360.68 454.87 360.68C454.87 360.68 486.368 485.346 503.723 476.992C521.079 468.639 540.363 457.714 539.72 451.288C539.078 444.862 497.295 376.746 497.295 376.746L503.081 317.626C503.081 317.626 510.151 293.849 497.938 272.001L501.795 261.076Z" fill="#2F2E41"/>
<path d="M462.88 245.011H496.277C498.556 231.841 498.556 218.376 496.277 205.205H462.88C466.642 218.208 466.642 232.009 462.88 245.011Z" fill="#11B9C4"/>
<path d="M560.289 216.094L503.723 214.809C503.723 214.809 478.654 195.53 478.011 207.097C477.368 218.664 504.366 225.09 504.366 225.09C504.366 225.09 562.404 245.911 571.31 236.786L560.289 216.094Z" fill="#FFB8B8"/>
<path d="M88.7483 398.44H87.8273V373.219C87.8273 371.302 87.4496 369.404 86.7158 367.633C85.982 365.862 84.9064 364.253 83.5505 362.897C82.1946 361.542 80.5849 360.466 78.8133 359.733C77.0417 358.999 75.1429 358.622 73.2254 358.622H19.7743C17.8568 358.622 15.958 358.999 14.1864 359.733C12.4148 360.466 10.8051 361.542 9.44921 362.897C8.0933 364.253 7.0177 365.862 6.28389 367.633C5.55007 369.404 5.17241 371.302 5.17242 373.219V511.585C5.17241 513.502 5.55007 515.4 6.28389 517.171C7.0177 518.942 8.0933 520.552 9.44921 521.907C10.8051 523.263 12.4148 524.338 14.1864 525.071C15.958 525.805 17.8568 526.183 19.7743 526.183H73.2254C75.1429 526.183 77.0417 525.805 78.8133 525.071C80.5849 524.338 82.1946 523.263 83.5505 521.907C84.9064 520.552 85.982 518.942 86.7158 517.171C87.4496 515.4 87.8273 513.502 87.8273 511.585V416.393H88.7483V398.44Z" fill="#3F3D56"/>
<path d="M84.7178 374.077V512.243C84.7183 515.134 83.5699 517.907 81.5252 519.952C79.4805 521.997 76.707 523.146 73.8148 523.147H20.1057C17.2136 523.146 14.4401 521.997 12.3954 519.952C10.3507 517.907 9.20234 515.134 9.20284 512.243V374.077C9.20314 371.187 10.3519 368.414 12.3965 366.37C14.4412 364.326 17.2142 363.178 20.1057 363.178H26.6219C26.3012 363.964 26.1789 364.817 26.2657 365.662C26.3526 366.507 26.6458 367.317 27.1197 368.022C27.5937 368.726 28.2337 369.304 28.9834 369.703C29.7331 370.102 30.5695 370.311 31.419 370.311H62.0408C62.8903 370.311 63.7267 370.102 64.4764 369.703C65.2262 369.304 65.8662 368.726 66.3401 368.022C66.814 367.317 67.1073 366.507 67.1941 365.662C67.2809 364.817 67.1586 363.964 66.8379 363.178H73.8148C76.7064 363.178 79.4794 364.326 81.524 366.37C83.5687 368.414 84.7174 371.187 84.7178 374.077Z" fill="#F2F2F2"/>
<path d="M76.8434 381.548H31.4666V383.233H76.8434V381.548Z" fill="#CCCCCC"/>
<path d="M76.8434 386.885H31.4666V388.571H76.8434V386.885Z" fill="#CCCCCC"/>
<path d="M76.8434 392.223H31.4666V393.909H76.8434V392.223Z" fill="#CCCCCC"/>
<path d="M27.358 382.589H17.0772V392.867H27.358V382.589Z" fill="#CCCCCC"/>
<path d="M76.8434 501.451H31.4666V503.137H76.8434V501.451Z" fill="#CCCCCC"/>
<path d="M76.8434 506.789H31.4666V508.475H76.8434V506.789Z" fill="#CCCCCC"/>
<path d="M76.8434 512.127H31.4666V513.813H76.8434V512.127Z" fill="#CCCCCC"/>
<path d="M27.358 502.492H17.0772V512.772H27.358V502.492Z" fill="#CCCCCC"/>
<path d="M30.588 455.952C34.8685 455.952 38.3386 452.482 38.3386 448.203C38.3386 443.924 34.8685 440.455 30.588 440.455C26.3074 440.455 22.8374 443.924 22.8374 448.203C22.8374 452.482 26.3074 455.952 30.588 455.952Z" fill="#11B9C4"/>
<path d="M51.2563 454.363C54.6595 454.363 57.4184 451.605 57.4184 448.203C57.4184 444.801 54.6595 442.043 51.2563 442.043C47.8531 442.043 45.0943 444.801 45.0943 448.203C45.0943 451.605 47.8531 454.363 51.2563 454.363Z" fill="#11B9C4"/>
<path d="M71.9245 452.243C74.1564 452.243 75.9657 450.434 75.9657 448.203C75.9657 445.972 74.1564 444.163 71.9245 444.163C69.6927 444.163 67.8834 445.972 67.8834 448.203C67.8834 450.434 69.6927 452.243 71.9245 452.243Z" fill="#11B9C4"/>
<path d="M216.75 37.9045L143.017 54.7182L142.059 54.9372C141.57 55.0478 141.124 55.295 140.771 55.6505C140.418 56.0059 140.172 56.4551 140.063 56.9465C139.953 57.4378 139.984 57.9513 140.151 58.4279C140.319 58.9045 140.616 59.3248 141.009 59.6406L193.115 101.635C193.451 101.904 193.846 102.088 194.266 102.173C194.687 102.257 195.12 102.238 195.531 102.119C195.942 101.999 196.318 101.78 196.626 101.481C196.933 101.182 197.163 100.811 197.296 100.401L206.533 72.1084C206.597 71.9036 206.702 71.7147 206.843 71.5535C206.983 71.3923 207.155 71.2624 207.349 71.1719C207.61 71.0449 207.901 70.992 208.19 71.0188C208.48 71.0455 208.758 71.151 208.993 71.3239L216.082 76.6074C216.544 76.9647 217.11 77.1572 217.691 77.1541C218.272 77.151 218.833 76.9525 219.286 76.5904L219.303 76.5773C219.768 76.2245 220.1 75.7237 220.246 75.1555C220.393 74.5873 220.344 73.9848 220.11 73.4447L213.226 56.8014C213.139 56.5939 213.096 56.3711 213.099 56.1469C213.109 55.9214 213.162 55.7004 213.256 55.4961L219.762 41.6832C219.976 41.2292 220.058 40.7228 219.999 40.2221C219.939 39.7214 219.741 39.2466 219.427 38.8522C219.112 38.4578 218.694 38.1597 218.221 37.9921C217.747 37.8245 217.238 37.7941 216.75 37.9045ZM218.803 41.2185L212.297 55.0315C212.211 55.2093 212.146 55.3965 212.102 55.5894L143.576 56.2247C143.515 56.2247 143.455 56.2307 143.395 56.2425C143.151 56.288 142.931 56.418 142.773 56.61C142.615 56.802 142.529 57.044 142.53 57.2942C142.531 57.5443 142.619 57.7868 142.779 57.9798C142.939 58.1727 143.16 58.304 143.404 58.3509L205.921 70.9882C205.744 71.2222 205.608 71.4855 205.52 71.7665L196.283 100.059C196.203 100.304 196.064 100.526 195.88 100.705C195.696 100.884 195.471 101.016 195.225 101.088C194.979 101.161 194.718 101.173 194.466 101.122C194.213 101.072 193.976 100.961 193.774 100.799L141.669 58.8052C141.435 58.6149 141.258 58.3626 141.158 58.0771C141.059 57.7916 141.041 57.4843 141.107 57.1904C141.173 56.8964 141.32 56.6275 141.53 56.4144C141.741 56.2013 142.008 56.0524 142.3 55.9848L143.281 55.7614L216.99 38.9523C217.283 38.8858 217.589 38.9037 217.874 39.004C218.158 39.1042 218.409 39.2829 218.598 39.5193C218.787 39.7558 218.907 40.0406 218.943 40.3411C218.979 40.6416 218.931 40.9457 218.803 41.2185Z" fill="#11B9C4"/>
<path d="M216.75 37.9045L143.017 54.7182L142.059 54.9372C141.57 55.0478 141.124 55.295 140.771 55.6505C140.418 56.0059 140.172 56.4551 140.063 56.9465C139.953 57.4378 139.984 57.9513 140.151 58.4279C140.319 58.9045 140.616 59.3248 141.009 59.6406L193.115 101.635C193.451 101.904 193.846 102.088 194.266 102.173C194.687 102.257 195.12 102.238 195.531 102.119C195.942 101.999 196.318 101.78 196.626 101.481C196.933 101.182 197.163 100.811 197.296 100.401L206.533 72.1084C206.597 71.9036 206.702 71.7147 206.843 71.5535C206.983 71.3923 207.155 71.2624 207.349 71.1719C207.61 71.0449 207.901 70.992 208.19 71.0188C208.48 71.0455 208.758 71.151 208.993 71.3239L216.082 76.6074C216.544 76.9647 217.11 77.1572 217.691 77.1541C218.272 77.151 218.833 76.9525 219.286 76.5904L219.303 76.5773C219.768 76.2245 220.1 75.7237 220.246 75.1555C220.393 74.5873 220.344 73.9848 220.11 73.4447L213.226 56.8014C213.139 56.5939 213.096 56.3711 213.099 56.1469C213.109 55.9214 213.162 55.7004 213.256 55.4961L219.762 41.6832C219.976 41.2292 220.058 40.7228 219.999 40.2221C219.939 39.7214 219.741 39.2466 219.427 38.8522C219.112 38.4578 218.694 38.1597 218.221 37.9921C217.747 37.8245 217.238 37.7941 216.75 37.9045L216.75 37.9045ZM218.803 41.2185L212.297 55.0315C212.211 55.2093 212.146 55.3965 212.102 55.5894C212.061 55.7616 212.039 55.9378 212.036 56.115C212.03 56.2971 212.045 56.4794 212.078 56.6588L212.081 56.663C212.115 56.8501 212.17 57.0329 212.244 57.208L219.128 73.8512C219.272 74.1745 219.303 74.5366 219.215 74.8779C219.127 75.2193 218.927 75.5197 218.646 75.7296L218.637 75.7361C218.367 75.9567 218.03 76.0783 217.681 76.0814C217.331 76.0844 216.991 75.9687 216.713 75.753L209.621 70.4652C209.256 70.1934 208.829 70.0194 208.379 69.9598C207.93 69.9002 207.474 69.957 207.055 70.1248L207.051 70.1279C206.994 70.1511 206.938 70.1741 206.886 70.2013C206.505 70.3802 206.173 70.6504 205.921 70.9882C205.744 71.2222 205.608 71.4855 205.52 71.7665L196.283 100.059C196.203 100.304 196.064 100.526 195.88 100.705C195.696 100.884 195.471 101.016 195.225 101.088C194.979 101.161 194.718 101.173 194.466 101.122C194.213 101.072 193.976 100.961 193.774 100.799L141.669 58.8052C141.435 58.6149 141.258 58.3626 141.158 58.0771C141.059 57.7916 141.041 57.4843 141.107 57.1904C141.173 56.8964 141.32 56.6275 141.53 56.4144C141.741 56.2013 142.008 56.0524 142.3 55.9848L143.281 55.7614L216.99 38.9523C217.283 38.8858 217.589 38.9037 217.874 39.004C218.158 39.1042 218.409 39.2829 218.598 39.5193C218.787 39.7558 218.907 40.0406 218.943 40.3411C218.979 40.6416 218.931 40.9457 218.803 41.2185Z" fill="#3F3D56"/>
<path d="M212.223 55.7988L212.232 56.8486L211.937 56.8566L211.934 56.8524L143.972 57.9939L206.843 70.0903L206.847 70.0872L207.016 70.1232L206.809 71.1534L205.716 70.9419L143.761 59.0273C143.519 58.9831 143.3 58.8562 143.143 58.6682C142.987 58.4803 142.901 58.2433 142.902 57.9982C142.903 57.7531 142.99 57.5153 143.148 57.3259C143.306 57.1365 143.525 57.0075 143.768 56.9611C143.827 56.949 143.887 56.9427 143.948 56.9423L211.966 55.8042L212.223 55.7988Z" fill="#3F3D56"/>
</g>
<defs>
<clipPath id="clip0">
<rect width="575" height="544.829" fill="white"/>
</clipPath>
</defs>
</svg>
