<?xml version="1.0" encoding="utf-8"?>
<!-- Generator: Adobe Illustrator 22.0.0, SVG Export Plug-In . SVG Version: 6.00 Build 0)  -->
<svg version="1.1" id="Layer_1" xmlns="http://www.w3.org/2000/svg" xmlns:xlink="http://www.w3.org/1999/xlink" x="0px" y="0px"
	 viewBox="0 0 575 401.5" style="enable-background:new 0 0 575 401.5;" xml:space="preserve">
<style type="text/css">
	.st0{clip-path:url(#SVGID_2_);}
	.st1{fill:#3F3D56;}
	.st2{fill:#F2F2F2;}
	.st3{fill:#11B9C4;}
	.st4{fill:#E6E6E6;}
	.st5{fill:#CCCCCC;}
</style>
<g>
	<defs>
		<rect id="SVGID_1_" y="-90.4" width="575" height="544.8"/>
	</defs>
	<clipPath id="SVGID_2_">
		<use xlink:href="#SVGID_1_"  style="overflow:visible;"/>
	</clipPath>
	<g class="st0">
		<g>
			<path class="st1" d="M525.2,117.5H366.8v-3.3H295v3.3H136c-1.4,0-2.8,0.3-4.1,0.8c-1.3,0.5-2.5,1.3-3.5,2.3c-1,1-1.8,2.2-2.3,3.5
				c-0.5,1.3-0.8,2.7-0.8,4.1V345c0,2.8,1.1,5.6,3.1,7.6c2,2,4.7,3.1,7.6,3.1h389.3c2.8,0,5.6-1.1,7.6-3.1c2-2,3.1-4.7,3.1-7.6
				V128.2c0-1.4-0.3-2.8-0.8-4.1c-0.5-1.3-1.3-2.5-2.3-3.5c-1-1-2.2-1.8-3.5-2.3C528,117.7,526.6,117.5,525.2,117.5z"/>
			<path class="st2" d="M521.6,136.4h-382v215.4h382V136.4z"/>
			<path class="st3" d="M306.9,248.8c5.3,0,9.5-4.3,9.5-9.5c0-5.3-4.3-9.5-9.5-9.5c-5.3,0-9.5,4.3-9.5,9.5
				C297.3,244.5,301.6,248.8,306.9,248.8z"/>
			<path class="st3" d="M332.2,246.8c4.2,0,7.6-3.4,7.6-7.6c0-4.2-3.4-7.6-7.6-7.6c-4.2,0-7.6,3.4-7.6,7.6
				C324.7,243.5,328,246.8,332.2,246.8z"/>
			<path class="st3" d="M357.6,244.2c2.7,0,5-2.2,5-5c0-2.7-2.2-5-5-5c-2.7,0-5,2.2-5,5C352.6,242,354.9,244.2,357.6,244.2z"/>
			<path class="st3" d="M330.3,130.5c2.2,0,3.9-1.8,3.9-3.9c0-2.2-1.8-3.9-3.9-3.9c-2.2,0-3.9,1.8-3.9,3.9
				C326.3,128.8,328.1,130.5,330.3,130.5z"/>
			<path class="st1" d="M546.6,347.9h-37.3v-2.7c0-0.1,0-0.1,0-0.2c0-0.1-0.1-0.1-0.1-0.2c-0.1,0-0.1-0.1-0.2-0.1
				c-0.1,0-0.1,0-0.2,0h-12.8c-0.1,0-0.1,0-0.2,0c-0.1,0-0.1,0.1-0.2,0.1c0,0.1-0.1,0.1-0.1,0.2c0,0.1,0,0.1,0,0.2v2.7h-8v-2.7
				c0-0.1,0-0.1,0-0.2c0-0.1-0.1-0.1-0.1-0.2c0,0-0.1-0.1-0.2-0.1c-0.1,0-0.1,0-0.2,0h-12.8c-0.1,0-0.1,0-0.2,0
				c-0.1,0-0.1,0.1-0.2,0.1c0,0.1-0.1,0.1-0.1,0.2c0,0.1,0,0.1,0,0.2v2.7h-8v-2.7c0-0.1,0-0.1,0-0.2c0-0.1-0.1-0.1-0.1-0.2
				c-0.1,0-0.1-0.1-0.2-0.1c-0.1,0-0.1,0-0.2,0h-12.8c-0.1,0-0.1,0-0.2,0c-0.1,0-0.1,0.1-0.2,0.1c0,0.1-0.1,0.1-0.1,0.2
				c0,0.1,0,0.1,0,0.2v2.7h-8v-2.7c0-0.1,0-0.1,0-0.2c0-0.1-0.1-0.1-0.1-0.2c0,0-0.1-0.1-0.2-0.1c-0.1,0-0.1,0-0.2,0h-12.8
				c-0.1,0-0.1,0-0.2,0c-0.1,0-0.1,0.1-0.2,0.1c0,0.1-0.1,0.1-0.1,0.2c0,0.1,0,0.1,0,0.2v2.7h-8v-2.7c0-0.1,0-0.1,0-0.2
				c0-0.1-0.1-0.1-0.1-0.2c-0.1,0-0.1-0.1-0.2-0.1c-0.1,0-0.1,0-0.2,0h-12.8c-0.1,0-0.1,0-0.2,0c-0.1,0-0.1,0.1-0.2,0.1
				c0,0.1-0.1,0.1-0.1,0.2c0,0.1,0,0.1,0,0.2v2.7h-8v-2.7c0-0.1,0-0.1,0-0.2c0-0.1-0.1-0.1-0.1-0.2c0,0-0.1-0.1-0.2-0.1
				c-0.1,0-0.1,0-0.2,0h-12.8c-0.1,0-0.1,0-0.2,0c-0.1,0-0.1,0.1-0.2,0.1c0,0.1-0.1,0.1-0.1,0.2c0,0.1,0,0.1,0,0.2v2.7h-8v-2.7
				c0-0.1,0-0.1,0-0.2c0-0.1-0.1-0.1-0.1-0.2c-0.1,0-0.1-0.1-0.2-0.1c-0.1,0-0.1,0-0.2,0H277.7c-0.1,0-0.1,0-0.2,0
				c-0.1,0-0.1,0.1-0.2,0.1c-0.1,0.1-0.1,0.1-0.1,0.2c0,0.1,0,0.1,0,0.2v2.7h-8v-2.7c0-0.1,0-0.1,0-0.2c0-0.1-0.1-0.1-0.1-0.2
				c0,0-0.1-0.1-0.2-0.1c-0.1,0-0.1,0-0.2,0h-12.8c-0.1,0-0.1,0-0.2,0c-0.1,0-0.1,0.1-0.2,0.1c0,0.1-0.1,0.1-0.1,0.2
				c0,0.1,0,0.1,0,0.2v2.7h-8v-2.7c0-0.1,0-0.1,0-0.2c0-0.1-0.1-0.1-0.1-0.2c0,0-0.1-0.1-0.2-0.1c-0.1,0-0.1,0-0.2,0h-12.8
				c-0.1,0-0.1,0-0.2,0c-0.1,0-0.1,0.1-0.2,0.1c-0.1,0.1-0.1,0.1-0.1,0.2c0,0.1,0,0.1,0,0.2v2.7h-8v-2.7c0-0.1,0-0.1,0-0.2
				c0-0.1-0.1-0.1-0.1-0.2c0,0-0.1-0.1-0.2-0.1c-0.1,0-0.1,0-0.2,0h-12.8c-0.1,0-0.1,0-0.2,0c-0.1,0-0.1,0.1-0.2,0.1
				c0,0.1-0.1,0.1-0.1,0.2c0,0.1,0,0.1,0,0.2v2.7h-8v-2.7c0-0.1,0-0.1,0-0.2c0-0.1-0.1-0.1-0.1-0.2c0,0-0.1-0.1-0.2-0.1
				c-0.1,0-0.1,0-0.2,0h-12.8c-0.1,0-0.1,0-0.2,0c-0.1,0-0.1,0.1-0.2,0.1c0,0.1-0.1,0.1-0.1,0.2c0,0.1,0,0.1,0,0.2v2.7h-8v-2.7
				c0-0.1,0-0.1,0-0.2c0-0.1-0.1-0.1-0.1-0.2c0,0-0.1-0.1-0.2-0.1c-0.1,0-0.1,0-0.2,0h-12.8c-0.1,0-0.1,0-0.2,0
				c-0.1,0-0.1,0.1-0.2,0.1c0,0.1-0.1,0.1-0.1,0.2c0,0.1,0,0.1,0,0.2v2.7h-8v-2.7c0-0.1,0-0.1,0-0.2c0-0.1-0.1-0.1-0.1-0.2
				c0,0-0.1-0.1-0.2-0.1c-0.1,0-0.1,0-0.2,0h-12.8c-0.1,0-0.1,0-0.2,0c-0.1,0-0.1,0.1-0.2,0.1c0,0.1-0.1,0.1-0.1,0.2
				c0,0.1,0,0.1,0,0.2v2.7h-24.5c-3.4,0-6.6,1.3-9,3.7c-2.4,2.4-3.7,5.6-3.7,9v5.8c0,3.4,1.3,6.6,3.7,9c2.4,2.4,5.6,3.7,9,3.7h424.9
				c3.4,0,6.6-1.3,9-3.7c2.4-2.4,3.7-5.6,3.7-9v-5.8c0-1.7-0.3-3.3-1-4.9c-0.6-1.6-1.6-3-2.8-4.1c-1.2-1.2-2.6-2.1-4.1-2.8
				S548.3,347.9,546.6,347.9z"/>
			<path class="st4" d="M400.8,153.3H293.7v4h107.2V153.3z"/>
			<path class="st4" d="M400.8,165.9H293.7v4h107.2V165.9z"/>
			<path class="st4" d="M400.8,178.5H293.7v4h107.2V178.5z"/>
			<path class="st5" d="M400.8,153.3H293.7v4h107.2V153.3z"/>
			<path class="st5" d="M400.8,165.9H293.7v4h107.2V165.9z"/>
			<path class="st5" d="M400.8,178.5H293.7v4h107.2V178.5z"/>
			<path class="st5" d="M284,155.7h-24.3V180H284V155.7z"/>
			<path class="st5" d="M400.8,295.1H293.7v4h107.2V295.1z"/>
			<path class="st5" d="M400.8,307.7H293.7v4h107.2V307.7z"/>
			<path class="st5" d="M400.8,320.3H293.7v4h107.2V320.3z"/>
			<path class="st5" d="M284,297.6h-24.3v24.3H284V297.6z"/>
		</g>
		<g>
			<path class="st1" d="M125.2,230.4h-1.1v-31c0-2.4-0.5-4.7-1.4-6.9c-0.9-2.2-2.2-4.1-3.9-5.8c-1.7-1.7-3.6-3-5.8-3.9
				c-2.2-0.9-4.5-1.4-6.9-1.4H40.6c-2.4,0-4.7,0.5-6.9,1.4c-2.2,0.9-4.2,2.2-5.8,3.9c-1.7,1.7-3,3.6-3.9,5.8
				c-0.9,2.2-1.4,4.5-1.4,6.9v169.8c0,2.4,0.5,4.7,1.4,6.9c0.9,2.2,2.2,4.1,3.9,5.8c1.7,1.7,3.6,3,5.8,3.9c2.2,0.9,4.5,1.4,6.9,1.4
				h65.6c2.4,0,4.7-0.5,6.9-1.4c2.2-0.9,4.2-2.2,5.8-3.9c1.7-1.7,3-3.6,3.9-5.8c0.9-2.2,1.4-4.5,1.4-6.9V252.5h1.1V230.4z"/>
			<path class="st2" d="M120.3,200.5v169.6c0,3.5-1.4,7-3.9,9.5c-2.5,2.5-5.9,3.9-9.5,3.9H41c-3.5,0-7-1.4-9.5-3.9
				c-2.5-2.5-3.9-5.9-3.9-9.5V200.5c0-3.5,1.4-7,3.9-9.5c2.5-2.5,5.9-3.9,9.5-3.9h8c-0.4,1-0.5,2-0.4,3c0.1,1,0.5,2,1,2.9
				c0.6,0.9,1.4,1.6,2.3,2.1c0.9,0.5,1.9,0.7,3,0.7h37.6c1,0,2.1-0.3,3-0.7c0.9-0.5,1.7-1.2,2.3-2.1c0.6-0.9,0.9-1.9,1-2.9
				c0.1-1,0-2.1-0.4-3h8.6c3.5,0,7,1.4,9.5,3.9C118.9,193.6,120.3,197,120.3,200.5z"/>
			<path class="st5" d="M110.6,209.7H54.9v2.1h55.7V209.7z"/>
			<path class="st5" d="M110.6,216.3H54.9v2.1h55.7V216.3z"/>
			<path class="st5" d="M110.6,222.8H54.9v2.1h55.7V222.8z"/>
			<path class="st5" d="M49.9,211H37.3v12.6h12.6V211z"/>
			<path class="st5" d="M110.6,356.9H54.9v2.1h55.7V356.9z"/>
			<path class="st5" d="M110.6,363.4H54.9v2.1h55.7V363.4z"/>
			<path class="st5" d="M110.6,370H54.9v2.1h55.7V370z"/>
			<path class="st5" d="M49.9,358.2H37.3v12.6h12.6V358.2z"/>
			<path class="st3" d="M53.9,301c5.3,0,9.5-4.3,9.5-9.5s-4.3-9.5-9.5-9.5c-5.3,0-9.5,4.3-9.5,9.5S48.6,301,53.9,301z"/>
			<path class="st3" d="M79.2,299.1c4.2,0,7.6-3.4,7.6-7.6s-3.4-7.6-7.6-7.6c-4.2,0-7.6,3.4-7.6,7.6S75,299.1,79.2,299.1z"/>
			<path class="st3" d="M104.6,296.5c2.7,0,5-2.2,5-5c0-2.7-2.2-5-5-5c-2.7,0-5,2.2-5,5C99.6,294.3,101.9,296.5,104.6,296.5z"/>
		</g>
		<g>
			<path class="st1" d="M103.6,35.8c14.6-1.3,29.1,2.5,41.2,10.8l-0.8-8.3l5.3,4.4l1.1,11.4L139,55.1l-5.3-4.4l7.6-0.7
				C129,41.9,114,38.8,99.5,41.2C84.9,43.6,71.8,51.4,62.7,63c-9.1,11.7-13.4,26.3-12.2,41c1.2,14.7,8,28.4,18.9,38.4l-3.2,3.5
				c-9.1-8.3-15.6-19.1-18.6-31.1c-3.1-12-2.6-24.5,1.4-36.2c4-11.7,11.3-22,21-29.6C79.6,41.5,91.3,36.9,103.6,35.8z"/>
			<g>
				<g>
					<path class="st3" d="M145.9,12.7l85,51.4l1.1,0.7c0.6,0.3,1,0.8,1.3,1.4c0.3,0.6,0.4,1.3,0.3,1.9c-0.1,0.7-0.3,1.3-0.7,1.8
						c-0.4,0.5-0.9,0.9-1.6,1.2l-82.3,30.8c-0.5,0.2-1.1,0.3-1.7,0.2c-0.6-0.1-1.1-0.3-1.6-0.6c-0.5-0.3-0.8-0.7-1.1-1.2
						c-0.3-0.5-0.4-1.1-0.4-1.6l0.2-39.1c0-0.3,0-0.6-0.2-0.8c-0.1-0.3-0.3-0.5-0.5-0.7c-0.3-0.3-0.6-0.5-1-0.5
						c-0.4-0.1-0.8-0.1-1.1,0l-11,3.7c-0.7,0.3-1.5,0.3-2.2,0c-0.7-0.2-1.3-0.7-1.8-1.4l0,0c-0.4-0.6-0.6-1.4-0.6-2.2
						c0.1-0.8,0.4-1.5,0.9-2.1l15.5-17.9c0.2-0.2,0.3-0.5,0.4-0.8c0.1-0.3,0.1-0.6,0.1-0.9l-2.4-19.9c-0.1-0.7,0-1.3,0.3-1.9
						c0.3-0.6,0.7-1.1,1.3-1.5c0.6-0.4,1.2-0.6,1.9-0.6C144.7,12.2,145.3,12.3,145.9,12.7z M142,16l2.4,19.9c0,0.3,0,0.5,0,0.8
						l85.2,29.1c0.1,0,0.1,0.1,0.2,0.1c0.3,0.2,0.5,0.4,0.6,0.7c0.1,0.3,0.1,0.6,0,1c-0.1,0.3-0.3,0.6-0.6,0.8
						c-0.3,0.2-0.6,0.2-0.9,0.2l-83.1-10c0.1,0.4,0.2,0.7,0.2,1.1l-0.2,39.1c0,0.3,0.1,0.7,0.2,1c0.2,0.3,0.4,0.6,0.7,0.7
						c0.3,0.2,0.6,0.3,0.9,0.4c0.3,0,0.7,0,1-0.1l82.3-30.8c0.4-0.1,0.7-0.4,0.9-0.7c0.2-0.3,0.4-0.7,0.4-1.1c0-0.4,0-0.8-0.2-1.1
						c-0.2-0.4-0.4-0.6-0.8-0.9l-1.1-0.7l-84.9-51.4c-0.3-0.2-0.7-0.3-1.1-0.3c-0.4,0-0.8,0.1-1.1,0.3c-0.3,0.2-0.6,0.5-0.8,0.9
						C142,15.2,141.9,15.6,142,16z"/>
					<path class="st1" d="M145.9,12.7l85,51.4l1.1,0.7c0.6,0.3,1,0.8,1.3,1.4c0.3,0.6,0.4,1.3,0.3,1.9c-0.1,0.7-0.3,1.3-0.7,1.8
						c-0.4,0.5-0.9,0.9-1.6,1.2l-82.3,30.8c-0.5,0.2-1.1,0.3-1.7,0.2c-0.6-0.1-1.1-0.3-1.6-0.6c-0.5-0.3-0.8-0.7-1.1-1.2
						c-0.3-0.5-0.4-1.1-0.4-1.6l0.2-39.1c0-0.3,0-0.6-0.2-0.8c-0.1-0.3-0.3-0.5-0.5-0.7c-0.3-0.3-0.6-0.5-1-0.5
						c-0.4-0.1-0.8-0.1-1.1,0l-11,3.7c-0.7,0.3-1.5,0.3-2.2,0c-0.7-0.2-1.3-0.7-1.8-1.4l0,0c-0.4-0.6-0.6-1.4-0.6-2.2
						c0.1-0.8,0.4-1.5,0.9-2.1l15.5-17.9c0.2-0.2,0.3-0.5,0.4-0.8c0.1-0.3,0.1-0.6,0.1-0.9l-2.4-19.9c-0.1-0.7,0-1.3,0.3-1.9
						c0.3-0.6,0.7-1.1,1.3-1.5c0.6-0.4,1.2-0.6,1.9-0.6C144.7,12.2,145.3,12.3,145.9,12.7L145.9,12.7z M142,16l2.4,19.9
						c0,0.3,0,0.5,0,0.8c0,0.2-0.1,0.5-0.1,0.7c-0.1,0.2-0.2,0.5-0.3,0.7l0,0c-0.1,0.2-0.3,0.4-0.4,0.6l-15.5,17.9
						c-0.3,0.3-0.5,0.8-0.5,1.2c0,0.5,0.1,0.9,0.4,1.3l0,0c0.2,0.4,0.6,0.7,1,0.8c0.4,0.1,0.9,0.1,1.3,0l11-3.7
						c0.6-0.2,1.2-0.2,1.8-0.1c0.6,0.1,1.1,0.4,1.6,0.8l0,0c0.1,0.1,0.1,0.1,0.2,0.2c0.4,0.4,0.7,0.9,0.9,1.4
						c0.1,0.4,0.2,0.7,0.2,1.1l-0.2,39.1c0,0.3,0.1,0.7,0.2,1c0.2,0.3,0.4,0.6,0.7,0.7c0.3,0.2,0.6,0.3,0.9,0.4c0.3,0,0.7,0,1-0.1
						l82.3-30.8c0.4-0.1,0.7-0.4,0.9-0.7c0.2-0.3,0.4-0.7,0.4-1.1c0-0.4,0-0.8-0.2-1.1c-0.2-0.4-0.4-0.6-0.8-0.9l-1.1-0.7
						l-84.9-51.4c-0.3-0.2-0.7-0.3-1.1-0.3c-0.4,0-0.8,0.1-1.1,0.3c-0.3,0.2-0.6,0.5-0.8,0.9C142,15.2,141.9,15.6,142,16z"/>
					<path class="st1" d="M144.2,36.8l-0.4,1.3l0.4,0.1l0,0l84.3,29.5L145,56.9l0,0l-0.2,0l-0.2,1.4l1.4,0.2l82.2,10.7
						c0.3,0,0.6,0,0.9-0.2c0.3-0.2,0.5-0.4,0.6-0.7c0.1-0.3,0.1-0.6,0-0.9c-0.1-0.3-0.3-0.6-0.6-0.7c-0.1,0-0.1-0.1-0.2-0.1
						L144.5,37L144.2,36.8z"/>
				</g>
			</g>
		</g>
	</g>
</g>
</svg>
