<?xml version="1.0" encoding="utf-8"?>
<!-- Generator: Adobe Illustrator 22.0.0, SVG Export Plug-In . SVG Version: 6.00 Build 0)  -->
<svg version="1.1" id="Layer_1" xmlns="http://www.w3.org/2000/svg" xmlns:xlink="http://www.w3.org/1999/xlink" x="0px" y="0px"
	 viewBox="0 0 200 200" enable-background="new 0 0 200 200" xml:space="preserve">
<g>
	<linearGradient id="SVGID_1_" gradientUnits="userSpaceOnUse" x1="133.8716" y1="194.4526" x2="67.2043" y2="5.8332">
		<stop  offset="0" style="stop-color:#6CC4A4"/>
		<stop  offset="1" style="stop-color:#11B9C4"/>
	</linearGradient>
	<circle id="SVGID_2_" fill="url(#SVGID_1_)" cx="100.5" cy="100.1" r="100"/>
	<path opacity="0.5" fill="#F1F1F1" fill-opacity="0.33" d="M120.9,58.3L2.8,121.4c8.5,38.9,39.7,69.4,79,76.8L142.1,80
		C145.4,75.3,125.7,55.1,120.9,58.3z"/>
	<g>
		<path fill="#E4E3E3" d="M155.6,50.7l-69.2,96.4l-31.8-6.1l99.4-97l1.1,1.2C156.7,46.6,156.9,49,155.6,50.7L155.6,50.7z"/>
		<path fill="#D8D8D7" d="M54.7,140.9L49.5,109l98.4-66.3c1.8-1.2,4.1-0.9,5.6,0.6l1.1,1.1L54.7,140.9z M86.5,147.1l6.3-6.1
			l-15-11.7L86.5,147.1z"/>
		<path fill="#CECECD" d="M68.7,120l-19.3-11l5.8-5.6L68.7,120z"/>
		<path fill="#EFEEEE" d="M153.5,43.3L68.7,120L33.7,83.9c-1.6-1.6-0.9-4.4,1.2-5.1l112.2-37.1C149.3,41,151.8,41.6,153.5,43.3
			L153.5,43.3z M155.2,45.1l-77.4,84.2l33.3,34.3c1.6,1.6,4.3,1,5.1-1.1l40.3-111C157.4,49.3,156.8,46.8,155.2,45.1L155.2,45.1z"/>
		<path fill="#FCFDFF" d="M156.6,51.5L133.9,114c-4.1,11.2-18.4,14.2-26.7,5.7c-5.9-6.1-6.1-15.8-0.3-22.1l48.3-52.5
			C156.8,46.8,157.4,49.3,156.6,51.5L156.6,51.5z M147.1,41.7L83.9,62.6c-11.3,3.7-14.8,18-6.5,26.5l1.1,1.1
			c6,6.2,15.9,6.5,22.3,0.7l52.6-47.6C151.8,41.6,149.3,41,147.1,41.7L147.1,41.7z"/>
	</g>
	<path fill="#FFFFFF" d="M73.9,142.3l-21.7,21.1c-0.3,0.3-0.7,0.4-1.1,0.4c-0.4,0-0.8-0.2-1.1-0.5c-0.6-0.6-0.6-1.6,0-2.2l21.7-21.1
		c0.6-0.6,1.6-0.6,2.2,0C74.5,140.7,74.5,141.7,73.9,142.3z M75.8,149.6c-0.6-0.6-1.6-0.6-2.2,0l-11.1,10.8c-0.6,0.6-0.6,1.6,0,2.2
		c0.3,0.3,0.7,0.5,1.1,0.5c0.4,0,0.8-0.1,1.1-0.4l11.1-10.8C76.4,151.2,76.4,150.2,75.8,149.6z M58.1,164.6l-4.4,4.3
		c-0.6,0.6-0.6,1.6,0,2.2c0.3,0.3,0.7,0.5,1.1,0.5s0.8-0.1,1.1-0.4l4.4-4.3c0.6-0.6,0.6-1.6,0-2.2C59.7,164,58.8,164,58.1,164.6z
		 M72,161.6l-4.4,4.3c-0.6,0.6-0.6,1.6,0,2.2c0.3,0.3,0.7,0.5,1.1,0.5s0.8-0.1,1.1-0.4l4.4-4.3c0.6-0.6,0.6-1.6,0-2.2
		C73.6,161,72.6,161,72,161.6z"/>
</g>
</svg>
