<?xml version="1.0" encoding="utf-8"?>
<!-- Generator: Adobe Illustrator 22.0.0, SVG Export Plug-In . SVG Version: 6.00 Build 0)  -->
<svg version="1.1" id="Layer_1" xmlns="http://www.w3.org/2000/svg" xmlns:xlink="http://www.w3.org/1999/xlink" x="0px" y="0px"
	 viewBox="0 0 360 137" enable-background="new 0 0 360 137" xml:space="preserve">
<g>
	<path fill="#FFFFFF" d="M209.2,25l-24.5,76.8h-13.9L146.3,25h13.9l17.5,54.9L195.2,25H209.2z M238.2,84.1l8.6,10.1
		c-6.3,5.4-12.1,7.7-19.3,7.7c-7.7,0.1-14.9-3.3-19.8-9.3l0,0c-0.9-1.2-1.7-2.4-2.4-3.7l0,0c-0.9-1.8-1.6-3.6-2.1-5.6l0-0.1
		c-2.6-11.2,3.1-22.8,13.6-27.5c10.5-4.7,22.9-1.4,29.6,8h0c0.2,0.3,0.3,0.5,0.5,0.8c0.1,0.2,0.2,0.3,0.3,0.5c0.2,0.3,0.4,0.7,0.6,1
		c0.1,0.1,0.2,0.3,0.2,0.4c0.2,0.5,0.5,0.9,0.7,1.4l0,0l0,0.1l0,0.1l0,0l0,0.1l0,0l0,0.1l0,0l0,0.1l2.6,6.2L238.2,80l-1.8,0.8
		l-14.8,6.1c1.7,1,3.6,1.5,5.6,1.5C231.2,88.4,234.3,87.4,238.2,84.1z M216.5,76.1l0.5-0.2l7.9-3.3l8.2-3.4
		c-0.1-0.1-0.1-0.1-0.2-0.2c-1.8-1.4-4.1-2.2-6.4-2.2c-1.3,0-2.6,0.3-3.8,0.8C219.3,69.2,216.9,72.4,216.5,76.1L216.5,76.1z
		 M309.4,53.6v13.3h-6.4v10.9c0,6.4-2.5,12.6-7.1,17.1c-4.5,4.5-10.7,7.1-17.1,7.1h-8.8c-1.2,0-2.1,0.9-2.1,2.1
		c0,1.2,0.9,2.1,2.1,2.1h17.6c8.5,0,15.4,6.9,15.4,15.4c0,8.5-6.9,15.4-15.4,15.4h-15.4v-13.3h15.4c1.2,0,2.1-0.9,2.1-2.1
		c0-1.2-0.9-2.1-2.1-2.1h-17.6c-6.4,0-12.1-3.9-14.4-9.9c-2.3-5.9-0.7-12.7,4.1-16.9c-7.4-9.5-6.7-22.9,1.6-31.6
		c8.3-8.7,21.7-9.9,31.5-2.9c0.2-0.2,0.4-0.5,0.7-0.7c2.4-2.4,5.7-3.8,9.2-3.8H309.4z M278.9,66.8c-6,0-10.9,4.9-10.9,10.9
		c0,4.4,2.7,8.4,6.7,10.1c4.1,1.7,8.8,0.8,11.9-2.4c3.1-3.1,4-7.8,2.4-11.9C287.3,69.5,283.3,66.8,278.9,66.8L278.9,66.8z M360,75.1
		V102h-13.3V75.1c0-4.5-3.7-8.2-8.2-8.2s-8.2,3.6-8.2,8.2V102h-13.3V25.1h13.3v30.1c2.6-1.1,5.4-1.6,8.2-1.6
		C350.4,53.6,360,63.2,360,75.1z"/>
	<g>
		<circle id="SVGID_3_" fill="#FFFFFF" cx="62" cy="62.1" r="62"/>
		<path opacity="0.5" fill="#BABABA" fill-opacity="0.33" d="M74.6,36.2L1.4,75.3c5.3,24.1,24.6,43,48.9,47.6l37.4-73.3
			C89.8,46.7,77.5,34.2,74.6,36.2z"/>
		<g>
			<path fill="#52BF95" d="M96.1,31.5L53.2,91.2l-19.7-3.8l61.6-60.1l0.7,0.7C96.7,28.9,96.9,30.4,96.1,31.5L96.1,31.5z"/>
			<path fill="#1EB377" d="M33.5,87.4l-3.2-19.8l60.9-41.1c1.1-0.7,2.5-0.6,3.5,0.4l0.7,0.7L33.5,87.4z M53.2,91.2l3.9-3.8l-9.3-7.2
				L53.2,91.2z"/>
			<path fill="#04AD68" d="M42.3,74.4l-11.9-6.8l3.6-3.5L42.3,74.4z"/>
			<path fill="#38B986" d="M94.7,26.9L42.3,74.4L20.5,52c-1-1-0.6-2.7,0.8-3.1l69.5-23C92.2,25.5,93.7,25.8,94.7,26.9L94.7,26.9z
				 M95.8,28l-48,52.2l20.7,21.3c1,1,2.7,0.6,3.2-0.7l25-68.8C97.2,30.6,96.8,29,95.8,28L95.8,28z"/>
			<path fill="#6CC5A4" d="M96.7,32L82.6,70.7c-2.5,6.9-11.4,8.8-16.5,3.5c-3.7-3.8-3.8-9.8-0.2-13.7L95.8,28
				C96.8,29,97.2,30.6,96.7,32L96.7,32z M90.8,25.9L51.7,38.8c-7,2.3-9.2,11.1-4,16.4l0.7,0.7c3.7,3.9,9.9,4,13.8,0.4l32.6-29.5
				C93.7,25.8,92.2,25.5,90.8,25.9L90.8,25.9z"/>
		</g>
		<path d="M45.5,88.2L32,101.3c-0.2,0.2-0.4,0.3-0.7,0.3c-0.2,0-0.5-0.1-0.7-0.3c-0.4-0.4-0.4-1,0-1.4l13.4-13.1
			c0.4-0.4,1-0.4,1.4,0C45.8,87.2,45.8,87.8,45.5,88.2z M46.6,92.7c-0.4-0.4-1-0.4-1.4,0l-6.9,6.7c-0.4,0.4-0.4,1,0,1.4
			c0.2,0.2,0.4,0.3,0.7,0.3c0.2,0,0.5-0.1,0.7-0.3l6.9-6.7C47,93.7,47,93.1,46.6,92.7z M35.7,102l-2.7,2.7c-0.4,0.4-0.4,1,0,1.4
			c0.2,0.2,0.4,0.3,0.7,0.3c0.2,0,0.5-0.1,0.7-0.3l2.7-2.7c0.4-0.4,0.4-1,0-1.4C36.7,101.7,36.1,101.7,35.7,102z M44.3,100.2
			l-2.7,2.7c-0.4,0.4-0.4,1,0,1.4c0.2,0.2,0.4,0.3,0.7,0.3c0.2,0,0.5-0.1,0.7-0.3l2.7-2.7c0.4-0.4,0.4-1,0-1.4
			C45.3,99.8,44.7,99.8,44.3,100.2z"/>
	</g>
</g>
</svg>
