<svg width="40" height="40" viewBox="0 0 40 40" fill="none" xmlns="http://www.w3.org/2000/svg">
<path d="M20 0C8.95536 0 0 8.95536 0 20C0 31.0446 8.95536 40 20 40C31.0446 40 40 31.0446 40 20C40 8.95536 31.0446 0 20 0ZM31.4286 11.3259L29.6071 13.0714C29.4464 13.192 29.3705 13.3884 29.4018 13.5804V26.4241C29.3705 26.6205 29.4464 26.817 29.6071 26.933L31.3929 28.6786V29.067H22.4286V28.6964L24.2723 26.9063C24.4554 26.7232 24.4554 26.6696 24.4554 26.3973V16.0045L19.3214 29.0223H18.6295L12.6562 16.0045V24.7321C12.6027 25.0982 12.7321 25.4688 12.9911 25.7321L15.3929 28.6384V29.0268H8.57143V28.6384L10.9732 25.7321C11.0998 25.6014 11.1939 25.4429 11.2482 25.2692C11.3025 25.0956 11.3153 24.9117 11.2857 24.7321V14.6429C11.317 14.3616 11.2098 14.0893 10.9955 13.8973L8.86161 11.3259V10.9375H15.4911L20.6071 22.1652L25.1116 10.9464H31.4286V11.3259Z" fill="white"/>
</svg>
