<?xml version="1.0" encoding="utf-8"?>
<!-- Generator: Adobe Illustrator 22.0.0, SVG Export Plug-In . SVG Version: 6.00 Build 0)  -->
<svg version="1.1" id="Capa_1" xmlns="http://www.w3.org/2000/svg" xmlns:xlink="http://www.w3.org/1999/xlink" x="0px" y="0px"
	 viewBox="0 0 512 512" style="enable-background:new 0 0 512 512;" xml:space="preserve">
<style type="text/css">
	.st0{fill:#FFFFFF;}
</style>
<g>
	<g>
		<path class="st0" d="M492.5,0.8c-0.2,0.1-0.5,0-0.7,0.1l-480,180c-5.3,2-9,6.7-9.6,12.3s1.9,11.1,6.6,14.2l105.2,70.1l38.5,160.9
			c0.1,0.4,0.4,0.8,0.5,1.2c3.5,10.6,16.7,13.9,24.7,6l75.3-75.3l115.8,77.2c8.4,5.6,20,1.4,22.7-8.4l120-420
			C514.6,7.7,504-2.9,492.5,0.8z M188.9,305.9c-2.5,2.5-3.2,4.6-4.1,7.7c0,0.1,0,0.1,0,0.2L168,374.7L144.1,275l232.3-159.3
			L188.9,305.9z"/>
	</g>
</g>
<g>
	<g>
		<path class="st0" d="M100.6,411.3c-5.9-5.9-15.4-5.9-21.2,0l-75,75c-5.9,5.9-5.9,15.4,0,21.2c5.9,5.9,15.4,5.9,21.2,0l75-75
			C106.5,426.7,106.5,417.2,100.6,411.3z"/>
	</g>
</g>
<g>
	<g>
		<path class="st0" d="M100.6,321.3c-5.9-5.9-15.4-5.9-21.2,0l-75,75c-5.9,5.9-5.9,15.4,0,21.2c5.9,5.9,15.4,5.9,21.2,0l75-75
			C106.5,336.7,106.5,327.2,100.6,321.3z"/>
	</g>
</g>
</svg>
