<?xml version="1.0" encoding="utf-8"?>
<!-- Generator: Adobe Illustrator 22.0.0, SVG Export Plug-In . SVG Version: 6.00 Build 0)  -->
<svg version="1.1" id="Layer_1" xmlns="http://www.w3.org/2000/svg" xmlns:xlink="http://www.w3.org/1999/xlink" x="0px" y="0px"
	 viewBox="0 0 512 512" style="enable-background:new 0 0 512 512;" xml:space="preserve">
<style type="text/css">
	.st0{fill:#E4EDFB;}
	.st1{fill:#BFC9D1;}
	.st2{fill:#16BAC5;}
	.st3{fill:#FFFFFF;}
	.st4{fill:#6CC5A4;}
</style>
<path class="st0" d="M512,96v384c0,17.7-14.3,32-32,32H32c-17.7,0-32-14.3-32-32V96H512z"/>
<path class="st1" d="M320,320H192v-64c0-35.3,28.7-64,64-64s64,28.7,64,64V320z M224,288h64v-32c0-17.6-14.4-32-32-32
	s-32,14.4-32,32V288z"/>
<path class="st2" d="M0,0h512v128H0V0z"/>
<path class="st3" d="M64,48h32v32H64V48z"/>
<path class="st3" d="M128,48h32v32h-32V48z"/>
<path class="st0" d="M432,80H208c-8.8,0-16-7.2-16-16s7.2-16,16-16h224c8.8,0,16,7.2,16,16S440.8,80,432,80z"/>
<path class="st4" d="M320,448H192c-17.7,0-32-14.3-32-32V288h192v128C352,433.7,337.7,448,320,448z"/>
<path class="st3" d="M240,352h32v32h-32V352z"/>
</svg>
