<?xml version="1.0" encoding="utf-8"?>
<!-- Generator: Adobe Illustrator 22.0.0, SVG Export Plug-In . SVG Version: 6.00 Build 0)  -->
<svg version="1.1" id="Layer_1" xmlns="http://www.w3.org/2000/svg" xmlns:xlink="http://www.w3.org/1999/xlink" x="0px" y="0px"
	 viewBox="0 0 512 512" style="enable-background:new 0 0 512 512;" xml:space="preserve">
<style type="text/css">
	.st0{fill:#D7E1F2;}
	.st1{fill:#6CC5A4;}
	.st2{fill:#16BAC5;}
	.st3{fill:#E4EDFB;}
	.st4{fill:#FFFFFF;}
</style>
<path class="st0" d="M176,400h160v96H176V400z"/>
<path class="st1" d="M512,368H0V96c0-17.7,14.3-32,32-32h448c17.7,0,32,14.3,32,32V368z"/>
<path class="st2" d="M512,192H352V32c0-17.7,14.3-32,32-32h96c17.7,0,32,14.3,32,32V192z"/>
<path class="st3" d="M352,176v48c0,17.7,14.3,32,32,32h96c17.7,0,32-14.3,32-32v-48H352z"/>
<g>
	<path class="st4" d="M310.6,208H160c-8.8,0-16-7.2-16-16s7.2-16,16-16h73.4l-20.7-20.7l22.6-22.6L310.6,208z"/>
	<path class="st4" d="M148.7,315.3L73.4,240H224c8.8,0,16,7.2,16,16s-7.2,16-16,16h-73.4l20.7,20.7L148.7,315.3z"/>
	<path class="st4" d="M80,176h32v32H80V176z"/>
	<path class="st4" d="M272,240h32v32h-32V240z"/>
</g>
<path class="st3" d="M368,512H144c-8.8,0-16-7.2-16-16s7.2-16,16-16h224c8.8,0,16,7.2,16,16S376.8,512,368,512z"/>
<path class="st3" d="M480,432H32c-17.7,0-32-14.3-32-32v-48h512v48C512,417.7,497.7,432,480,432z"/>
</svg>
