<?xml version="1.0" encoding="utf-8"?>
<!-- Generator: Adobe Illustrator 22.0.0, SVG Export Plug-In . SVG Version: 6.00 Build 0)  -->
<svg version="1.1" id="Layer_1" xmlns="http://www.w3.org/2000/svg" xmlns:xlink="http://www.w3.org/1999/xlink" x="0px" y="0px"
	 viewBox="0 0 510.1 510.1" style="enable-background:new 0 0 510.1 510.1;" xml:space="preserve">
<style type="text/css">
	.st0{fill:#D7DEE2;}
	.st1{fill:#16BAC5;}
	.st2{fill:#6CC5A4;}
</style>
<path class="st0" d="M451.5,81.7l-23.1-23.1l53.8-53.8c6.4-6.4,16.7-6.4,23.1,0c6.4,6.4,6.4,16.7,0,23.1L451.5,81.7z"/>
<path class="st0" d="M4.8,505.3c-6.4-6.4-6.4-16.7,0-23.1l53.8-53.8l23.1,23.1l-53.8,53.8C21.5,511.7,11.2,511.7,4.8,505.3z"/>
<path class="st1" d="M393.7,231.9L278.2,116.4l57.8-57.8c31.9-31.9,83.7-31.9,115.6,0c31.9,31.9,31.9,83.6,0,115.6L393.7,231.9z"/>
<path class="st2" d="M58.6,451.5c-31.9-31.9-31.9-83.6,0-115.6l57.8-57.8l115.6,115.6l-57.8,57.8C142.2,483.4,90.5,483.4,58.6,451.5
	z"/>
<path class="st0" d="M208.8,231.9c-6.4-6.4-6.4-16.7,0-23.1l46.2-46.2l23.1,23.1l-46.2,46.2C225.5,238.3,215.2,238.3,208.8,231.9z"
	/>
<path class="st0" d="M278.1,301.3c-6.4-6.4-6.4-16.7,0-23.1l46.2-46.2l23.1,23.1l-46.2,46.2C294.9,307.6,284.5,307.6,278.1,301.3z"
	/>
<path class="st2" d="M208.8,139.5l69.3-69.3l161.8,161.8l-69.3,69.3L208.8,139.5z"/>
<path class="st1" d="M70.1,278.1l69.3-69.3l161.8,161.8l-69.3,69.3L70.1,278.1z"/>
</svg>
