<?xml version="1.0" encoding="utf-8"?>
<!-- Generator: Adobe Illustrator 22.0.0, SVG Export Plug-In . SVG Version: 6.00 Build 0)  -->
<svg version="1.1" id="Layer_1" xmlns="http://www.w3.org/2000/svg" xmlns:xlink="http://www.w3.org/1999/xlink" x="0px" y="0px"
	 viewBox="0 0 512 512" enable-background="new 0 0 512 512" xml:space="preserve">
<g>
	<g>
		<g>
			<g>
				<g>
					<g>
						<path fill="#375A64" d="M450.5,243.7l-68.2-0.3c-8.2,0-14.8-6.7-14.8-14.9L368.2,58c0-8.2,6.7-14.8,14.9-14.8l68.2,0.3
							c8.2,0,14.8,6.7,14.8,14.9L465.5,229C465.4,237.2,458.7,243.8,450.5,243.7z"/>
					</g>
				</g>
				<g>
					<g>
						<path fill="#FFFFFF" d="M451.3,49.4l-13.2-0.1c-1.8,0-3.2,1.5-3.2,3.3l0,2.4c0,1.8-1.5,3.3-3.2,3.3l-25.8-0.1
							c-1.8,0-3.2-1.5-3.2-3.4l0-2.4c0-1.8-1.4-3.4-3.2-3.4l-4.7,0l-11.6-0.1c-5.7,0-10.4,4.6-10.5,10.3L372,225.9
							c0,5.7,4.6,10.4,10.4,10.4l68.1,0.3c5.7,0,10.4-4.6,10.5-10.3l0.7-166.5C461.7,54.1,457,49.5,451.3,49.4z"/>
					</g>
				</g>
			</g>
		</g>
		<g>
			<rect x="382.8" y="162.7" fill="#375A64" width="67.4" height="4.5"/>
		</g>
		<g>
			<g>
				<path fill="#375A64" d="M447.8,180.4c0,0.2-14.4,0.3-32.1,0.3c-17.7,0-32.1-0.1-32.1-0.3c0-0.2,14.4-0.3,32.1-0.3
					C433.4,180.1,447.8,180.3,447.8,180.4z"/>
			</g>
		</g>
		<g>
			<g>
				<path fill="#375A64" d="M447.8,73.6c0,0.2-14.4,0.3-32.1,0.3c-17.7,0-32.1-0.1-32.1-0.3c0-0.2,14.4-0.3,32.1-0.3
					C433.4,73.3,447.8,73.4,447.8,73.6z"/>
			</g>
		</g>
		<g>
			<g>
				<path fill="#375A64" d="M447.8,188.6c0,0.2-14.4,0.3-32.1,0.3c-17.7,0-32.1-0.1-32.1-0.3c0-0.2,14.4-0.3,32.1-0.3
					C433.4,188.4,447.8,188.5,447.8,188.6z"/>
			</g>
		</g>
		<g>
			<g>
				<path fill="#375A64" d="M447.8,196.9c0,0.2-14.4,0.3-32.1,0.3c-17.7,0-32.1-0.1-32.1-0.3c0-0.2,14.4-0.3,32.1-0.3
					C433.4,196.6,447.8,196.7,447.8,196.9z"/>
			</g>
		</g>
		<g>
			<g>
				<path fill="#375A64" d="M447.8,205.1c0,0.2-14.4,0.3-32.1,0.3c-17.7,0-32.1-0.1-32.1-0.3c0-0.2,14.4-0.3,32.1-0.3
					C433.4,204.8,447.8,204.9,447.8,205.1z"/>
			</g>
		</g>
		<g>
			<g>
				<path fill="#375A64" d="M447.8,213.3c0,0.2-14.4,0.3-32.1,0.3c-17.7,0-32.1-0.1-32.1-0.3c0-0.2,14.4-0.3,32.1-0.3
					C433.4,213,447.8,213.1,447.8,213.3z"/>
			</g>
		</g>
		<g>
			<g>
				<path fill="#375A64" d="M448.7,222.6c0,0.2-14.4,0.3-32.1,0.3c-17.7,0-32.1-0.1-32.1-0.3c0-0.2,14.4-0.3,32.1-0.3
					C434.3,222.3,448.7,222.4,448.7,222.6z"/>
			</g>
		</g>
		<g>
			<g>
				<g>
					<g>
						<rect x="383.5" y="82.9" fill="#E1E1E1" width="67.5" height="65.3"/>
					</g>
				</g>
			</g>
			<g>
				<g>
					<g>
						<polygon fill="#6CC5A4" points="388.8,142.7 407.5,109 422.7,130.5 432,119.1 445.8,142.7 						"/>
					</g>
				</g>
			</g>
			<g>
				<g>
					<g>
						<path fill="#6CC5A4" d="M429.3,102.5c0,2.7-2.2,4.9-4.9,4.9c-2.7,0-4.9-2.2-4.9-4.9s2.2-4.9,4.9-4.9
							C427.1,97.6,429.3,99.8,429.3,102.5z"/>
					</g>
				</g>
			</g>
			<g>
				<g>
					<g>
						<g>
							<path fill="#375A64" d="M445.8,142.8c0,0,0-0.1,0-0.3c0-0.2,0-0.4,0-0.8c0-0.7,0-1.7,0-2.9c0-2.6,0-6.3-0.1-11.1
								c0-9.5-0.1-23.1-0.1-39.5l0.3,0.3c-16.5,0-36.1,0-57.1,0c-0.1,0.1,0.6-0.6,0.3-0.3v0v0v0.1v0.1v0.2v0.5v0.9V92
								c0,1.2,0,2.5,0,3.7c0,2.4,0,4.9,0,7.3c0,4.8,0,9.5,0,14.1c0,9.2,0,17.8,0,25.8l-0.3-0.3c17,0.1,31.3,0.1,41.3,0.1
								c5,0,8.9,0.1,11.6,0.1c1.3,0,2.4,0,3.1,0c0.3,0,0.6,0,0.8,0C445.7,142.8,445.8,142.8,445.8,142.8c0,0-0.1,0-0.2,0
								c-0.2,0-0.4,0-0.8,0c-0.7,0-1.7,0-3,0c-2.7,0-6.6,0-11.6,0.1c-10,0-24.3,0.1-41.4,0.1l-0.3,0v-0.3c0-8,0-16.6,0-25.8
								c0-4.6,0-9.3,0-14.1c0-2.4,0-4.8,0-7.3c0-1.2,0-2.5,0-3.7v-1.9l0-0.9v-0.5v-0.2v-0.1v-0.1v0v0c-0.3,0.3,0.4-0.4,0.3-0.3
								c20.9,0,40.5,0,57.1,0l0.3,0l0,0.3c-0.1,16.4-0.1,30-0.1,39.6c0,4.7-0.1,8.5-0.1,11c0,1.2,0,2.2,0,2.9c0,0.3,0,0.5,0,0.7
								C445.9,142.8,445.8,142.8,445.8,142.8z"/>
						</g>
					</g>
				</g>
			</g>
		</g>
	</g>
	<g>
		<g>
			<g>
				<path fill="#375A64" d="M296.6,60v150.6c0,7.2-5.8,13.1-13.1,13.1H56c-7.2,0-13.1-5.8-13.1-13.1V60C42.9,52.8,48.8,47,56,47
					h227.5C290.8,47,296.6,52.8,296.6,60z"/>
			</g>
			<g>
				
					<rect x="83.4" y="29.4" transform="matrix(6.123234e-17 -1 1 6.123234e-17 30.8807 301.5491)" fill="#FFFFFF" width="165.6" height="211.8"/>
			</g>
			<g>
				<path fill="#1A2E35" d="M283.9,128.6c3.7,0,6.8,3,6.8,6.8c0,3.7-3,6.8-6.8,6.8s-6.8-3-6.8-6.8
					C277.1,131.6,280.1,128.6,283.9,128.6z"/>
			</g>
			<g>
				<path fill="#1A2E35" d="M53.1,110.1v50.5c0,0.8-0.6,1.4-1.4,1.4h-0.1c-0.8,0-1.4-0.6-1.4-1.4v-50.5c0-0.8,0.6-1.4,1.4-1.4h0.1
					C52.4,108.7,53.1,109.3,53.1,110.1z"/>
			</g>
		</g>
		<g>
			<g>
				<rect x="156.9" y="65" fill="#375A64" width="67.4" height="4.5"/>
			</g>
			<g>
				<rect x="69.2" y="142.5" fill="#375A64" width="67.4" height="4.5"/>
			</g>
			<g>
				<g>
					<path fill="#375A64" d="M240.7,81.8c0,0.2-18.8,0.3-41.9,0.3c-23.1,0-41.9-0.1-41.9-0.3c0-0.2,18.8-0.3,41.9-0.3
						C221.9,81.5,240.7,81.6,240.7,81.8z"/>
				</g>
			</g>
			<g>
				<g>
					<path fill="#375A64" d="M240.7,91.6c0,0.2-18.8,0.3-41.9,0.3c-23.1,0-41.9-0.1-41.9-0.3c0-0.2,18.8-0.3,41.9-0.3
						C221.9,91.3,240.7,91.4,240.7,91.6z"/>
				</g>
			</g>
			<g>
				<g>
					<path fill="#375A64" d="M240.7,101.4c0,0.2-18.8,0.3-41.9,0.3c-23.1,0-41.9-0.1-41.9-0.3c0-0.2,18.8-0.3,41.9-0.3
						C221.9,101.1,240.7,101.3,240.7,101.4z"/>
				</g>
			</g>
			<g>
				<g>
					<path fill="#375A64" d="M240.7,111.3c0,0.2-18.8,0.3-41.9,0.3c-23.1,0-41.9-0.1-41.9-0.3c0-0.2,18.8-0.3,41.9-0.3
						C221.9,111,240.7,111.1,240.7,111.3z"/>
				</g>
			</g>
			<g>
				<g>
					<path fill="#375A64" d="M240.7,121.1c0,0.2-18.8,0.3-41.9,0.3c-23.1,0-41.9-0.1-41.9-0.3c0-0.2,18.8-0.3,41.9-0.3
						C221.9,120.8,240.7,121,240.7,121.1z"/>
				</g>
			</g>
			<g>
				<g>
					<path fill="#375A64" d="M222.3,131c0,0.2-14.6,0.3-32.7,0.3c-18.1,0-32.7-0.1-32.7-0.3c0-0.2,14.6-0.3,32.7-0.3
						C207.7,130.7,222.3,130.8,222.3,131z"/>
				</g>
			</g>
			<g>
				<g>
					<path fill="#375A64" d="M179.8,160.2c0,0.2-24.6,0.3-54.9,0.3c-30.4,0-55-0.1-55-0.3c0-0.2,24.6-0.3,55-0.3
						C155.2,159.9,179.8,160,179.8,160.2z"/>
				</g>
			</g>
			<g>
				<g>
					<path fill="#375A64" d="M179.8,168.4c0,0.2-24.6,0.3-54.9,0.3c-30.4,0-55-0.1-55-0.3c0-0.2,24.6-0.3,55-0.3
						C155.2,168.1,179.8,168.2,179.8,168.4z"/>
				</g>
			</g>
			<g>
				<g>
					<path fill="#375A64" d="M179.8,176.6c0,0.2-24.6,0.3-54.9,0.3c-30.4,0-55-0.1-55-0.3c0-0.2,24.6-0.3,55-0.3
						C155.2,176.3,179.8,176.4,179.8,176.6z"/>
				</g>
			</g>
			<g>
				<g>
					<path fill="#375A64" d="M179.8,184.8c0,0.2-24.6,0.3-54.9,0.3c-30.4,0-55-0.1-55-0.3c0-0.2,24.6-0.3,55-0.3
						C155.2,184.5,179.8,184.6,179.8,184.8z"/>
				</g>
			</g>
			<g>
				<g>
					<path fill="#375A64" d="M179.8,193c0,0.2-24.6,0.3-54.9,0.3c-30.4,0-55-0.1-55-0.3c0-0.2,24.6-0.3,55-0.3
						C155.2,192.7,179.8,192.8,179.8,193z"/>
				</g>
			</g>
			<g>
				<g>
					<g>
						<g>
							<rect x="69.9" y="62.7" fill="#16BAC5" width="67.5" height="65.3"/>
						</g>
					</g>
				</g>
				<g>
					<g>
						<g>
							<polygon fill="#E1E1E1" points="75.1,122.4 93.8,88.8 109.1,110.3 118.4,98.9 132.2,122.4 							"/>
						</g>
					</g>
				</g>
				<g>
					<g>
						<g>
							<path fill="#E1E1E1" d="M115.6,82.2c0,2.7-2.2,4.9-4.9,4.9c-2.7,0-4.9-2.2-4.9-4.9c0-2.7,2.2-4.9,4.9-4.9
								C113.4,77.4,115.6,79.6,115.6,82.2z"/>
						</g>
					</g>
				</g>
				<g>
					<g>
						<g>
							<g>
								<path fill="#375A64" d="M132.2,122.6c0,0,0-0.1,0-0.3c0-0.2,0-0.4,0-0.8c0-0.7,0-1.7,0-2.9c0-2.6,0-6.3-0.1-11.1
									c0-9.5-0.1-23.1-0.1-39.5l0.3,0.3c-16.5,0-36.1,0-57.1,0c-0.1,0.1,0.6-0.6,0.3-0.3v0v0v0.1v0.1v0.2V69v0.9v1.9
									c0,1.2,0,2.5,0,3.7c0,2.4,0,4.9,0,7.3c0,4.8,0,9.5,0,14.1c0,9.2,0,17.8,0,25.8l-0.3-0.3c17,0.1,31.3,0.1,41.3,0.1
									c5,0,8.9,0.1,11.6,0.1c1.3,0,2.4,0,3.1,0c0.3,0,0.6,0,0.8,0C132.1,122.6,132.2,122.6,132.2,122.6c0,0-0.1,0-0.2,0
									c-0.2,0-0.4,0-0.8,0c-0.7,0-1.7,0-3,0c-2.7,0-6.6,0-11.6,0.1c-10,0-24.3,0.1-41.4,0.1l-0.3,0v-0.3c0-8,0-16.6,0-25.8
									c0-4.6,0-9.3,0-14.1c0-2.4,0-4.8,0-7.3c0-1.2,0-2.5,0-3.7v-1.9l0-0.9v-0.5v-0.2v-0.1v-0.1v0v0c-0.3,0.3,0.4-0.4,0.3-0.3
									c20.9,0,40.5,0,57.1,0l0.3,0l0,0.3c-0.1,16.4-0.1,30-0.1,39.6c0,4.7-0.1,8.5-0.1,11c0,1.2,0,2.2,0,2.9c0,0.3,0,0.5,0,0.7
									C132.2,122.5,132.2,122.6,132.2,122.6z"/>
							</g>
						</g>
					</g>
				</g>
			</g>
			<g>
				<g>
					<g>
						<g>
							<rect x="195" y="151.1" fill="#6CC5A4" width="47.8" height="46.2"/>
						</g>
					</g>
				</g>
				<g>
					<g>
						<g>
							<polygon fill="#E1E1E1" points="198.7,193.4 211.9,169.6 222.7,184.8 229.3,176.7 239.1,193.4 							"/>
						</g>
					</g>
				</g>
				<g>
					<g>
						<g>
							<path fill="#E1E1E1" d="M227.3,165c0,1.9-1.5,3.4-3.4,3.4c-1.9,0-3.4-1.5-3.4-3.4c0-1.9,1.5-3.4,3.4-3.4
								C225.8,161.5,227.3,163.1,227.3,165z"/>
						</g>
					</g>
				</g>
				<g>
					<g>
						<g>
							<g>
								<path fill="#375A64" d="M239.1,193.5c0,0,0-0.1,0-0.2c0-0.1,0-0.3,0-0.5c0-0.5,0-1.2,0-2.1c0-1.8,0-4.5-0.1-7.9
									c0-6.8-0.1-16.4-0.1-27.9l0.2,0.2c-11.7,0-25.6,0-40.4,0c-0.1,0,0.4-0.4,0.2-0.2v0v0v0v0.1v0.2v0.3v0.7v1.3
									c0,0.9,0,1.7,0,2.6c0,1.7,0,3.4,0,5.1c0,3.4,0,6.7,0,10c0,6.5,0,12.6,0,18.2l-0.2-0.2c12.1,0,22.1,0.1,29.2,0.1
									c3.5,0,6.3,0,8.2,0.1c0.9,0,1.7,0,2.2,0c0.2,0,0.4,0,0.6,0C239,193.5,239.1,193.5,239.1,193.5c0,0-0.1,0-0.2,0
									c-0.1,0-0.3,0-0.5,0c-0.5,0-1.2,0-2.1,0c-1.9,0-4.7,0-8.2,0.1c-7.1,0-17.2,0.1-29.3,0.1l-0.2,0v-0.2c0-5.6,0-11.8,0-18.2
									c0-3.2,0-6.6,0-10c0-1.7,0-3.4,0-5.1c0-0.9,0-1.7,0-2.6v-1.3l0-0.7v-0.3v-0.2V155v0v0v0c-0.2,0.2,0.3-0.3,0.2-0.2
									c14.8,0,28.7,0,40.4,0h0.2l0,0.2c0,11.6-0.1,21.3-0.1,28c0,3.3,0,6-0.1,7.8c0,0.9,0,1.6,0,2c0,0.2,0,0.4,0,0.5
									C239.1,193.5,239.1,193.5,239.1,193.5z"/>
							</g>
						</g>
					</g>
				</g>
			</g>
		</g>
	</g>
	<g>
		<g>
			<g>
				<g>
					<path fill="#1A2E35" d="M376.6,491.1H54.9c-9.1,0-16.5-7.4-16.5-16.5V273.1c0-9.1,7.4-16.5,16.5-16.5h321.6
						c9.1,0,16.5,7.4,16.5,16.5v201.5C393,483.7,385.7,491.1,376.6,491.1z"/>
				</g>
				<g>
					<path fill="#1A2E35" d="M387.7,494.2H43.8c-11.1,0-20.1-9-20.1-20.1v-0.4h384.1v0.4C407.8,485.2,398.8,494.2,387.7,494.2z"/>
				</g>
				<g>
					<rect x="48" y="265.9" fill="#E1E1E1" width="334.5" height="198"/>
				</g>
				<g>
					<polygon fill="#375A64" points="180.8,473.7 185.6,481.3 252.6,481.3 257.1,473.7 					"/>
				</g>
			</g>
			<g>
				<rect x="59.1" y="279.1" fill="#FAFAFA" width="308" height="184.7"/>
			</g>
			<g>
				<path fill="#375A64" d="M72.3,288.2c0,1.4-1.2,2.6-2.6,2.6c-1.4,0-2.6-1.2-2.6-2.6c0-1.4,1.2-2.6,2.6-2.6
					C71.1,285.6,72.3,286.8,72.3,288.2z"/>
			</g>
			<g>
				<path fill="#375A64" d="M82.8,288.2c0,1.4-1.2,2.6-2.6,2.6c-1.4,0-2.6-1.2-2.6-2.6c0-1.4,1.2-2.6,2.6-2.6
					C81.7,285.6,82.8,286.8,82.8,288.2z"/>
			</g>
			<g>
				<path fill="#375A64" d="M93.4,288.2c0,1.4-1.2,2.6-2.6,2.6c-1.4,0-2.6-1.2-2.6-2.6c0-1.4,1.2-2.6,2.6-2.6
					C92.2,285.6,93.4,286.8,93.4,288.2z"/>
			</g>
			<g>
				<g>
					<path fill="#375A64" d="M367.2,299.5c0,0.2-69,0.3-154,0.3c-85.1,0-154-0.1-154-0.3c0-0.2,68.9-0.3,154-0.3
						C298.2,299.2,367.2,299.3,367.2,299.5z"/>
				</g>
			</g>
			<g>
				<rect x="38.5" y="473.9" fill="#375A64" width="354.6" height="1.1"/>
			</g>
		</g>
		<g>
			<g>
				<rect x="84.4" y="389.3" fill="#375A64" width="67.4" height="4.5"/>
			</g>
			<g>
				<rect x="171.4" y="326.7" fill="#375A64" width="67.4" height="4.5"/>
			</g>
			<g>
				<g>
					<path fill="#375A64" d="M339,343.5c0,0.2-37.5,0.3-83.8,0.3c-46.3,0-83.8-0.1-83.8-0.3c0-0.2,37.5-0.3,83.8-0.3
						C301.5,343.2,339,343.3,339,343.5z"/>
				</g>
			</g>
			<g>
				<g>
					<path fill="#375A64" d="M339,353.3c0,0.2-37.5,0.3-83.8,0.3c-46.3,0-83.8-0.1-83.8-0.3c0-0.2,37.5-0.3,83.8-0.3
						C301.5,353,339,353.2,339,353.3z"/>
				</g>
			</g>
			<g>
				<g>
					<path fill="#375A64" d="M339,363.2c0,0.2-37.5,0.3-83.8,0.3c-46.3,0-83.8-0.1-83.8-0.3c0-0.2,37.5-0.3,83.8-0.3
						C301.5,362.9,339,363,339,363.2z"/>
				</g>
			</g>
			<g>
				<g>
					<path fill="#375A64" d="M339,373c0,0.2-37.5,0.3-83.8,0.3c-46.3,0-83.8-0.1-83.8-0.3c0-0.2,37.5-0.3,83.8-0.3
						C301.5,372.7,339,372.8,339,373z"/>
				</g>
			</g>
			<g>
				<g>
					<path fill="#375A64" d="M339,382.8c0,0.2-37.5,0.3-83.8,0.3c-46.3,0-83.8-0.1-83.8-0.3c0-0.2,37.5-0.3,83.8-0.3
						C301.5,382.5,339,382.7,339,382.8z"/>
				</g>
			</g>
			<g>
				<g>
					<path fill="#375A64" d="M236.8,392.7c0,0.2-14.6,0.3-32.7,0.3c-18.1,0-32.7-0.1-32.7-0.3c0-0.2,14.6-0.3,32.7-0.3
						C222.2,392.4,236.8,392.5,236.8,392.7z"/>
				</g>
			</g>
			<g>
				<g>
					<path fill="#375A64" d="M337.8,411.8c0,0.2-24.7,0.3-55.1,0.3c-30.4,0-55.1-0.1-55.1-0.3c0-0.2,24.7-0.3,55.1-0.3
						C313.1,411.5,337.8,411.6,337.8,411.8z"/>
				</g>
			</g>
			<g>
				<g>
					<path fill="#375A64" d="M337.8,422.2c0,0.2-24.7,0.3-55.1,0.3c-30.4,0-55.1-0.1-55.1-0.3c0-0.2,24.7-0.3,55.1-0.3
						C313.1,421.9,337.8,422.1,337.8,422.2z"/>
				</g>
			</g>
			<g>
				<g>
					<path fill="#375A64" d="M337.8,432.7c0,0.2-24.7,0.3-55.1,0.3c-30.4,0-55.1-0.1-55.1-0.3c0-0.2,24.7-0.3,55.1-0.3
						C313.1,432.4,337.8,432.5,337.8,432.7z"/>
				</g>
			</g>
			<g>
				<g>
					<path fill="#375A64" d="M337.8,443.1c0,0.2-24.7,0.3-55.1,0.3c-30.4,0-55.1-0.1-55.1-0.3c0-0.2,24.7-0.3,55.1-0.3
						C313.1,442.8,337.8,443,337.8,443.1z"/>
				</g>
			</g>
			<g>
				<g>
					<path fill="#375A64" d="M151.9,410.8c0,0.2-14.7,0.3-32.8,0.3c-18.1,0-32.8-0.1-32.8-0.3c0-0.2,14.7-0.3,32.8-0.3
						C137.2,410.5,151.9,410.6,151.9,410.8z"/>
				</g>
			</g>
			<g>
				<g>
					<path fill="#375A64" d="M151.9,419c0,0.2-14.7,0.3-32.8,0.3c-18.1,0-32.8-0.1-32.8-0.3c0-0.2,14.7-0.3,32.8-0.3
						C137.2,418.7,151.9,418.8,151.9,419z"/>
				</g>
			</g>
			<g>
				<g>
					<path fill="#375A64" d="M151.9,427.2c0,0.2-14.7,0.3-32.8,0.3c-18.1,0-32.8-0.1-32.8-0.3c0-0.2,14.7-0.3,32.8-0.3
						C137.2,426.9,151.9,427,151.9,427.2z"/>
				</g>
			</g>
			<g>
				<g>
					<path fill="#375A64" d="M151.9,435.4c0,0.2-14.7,0.3-32.8,0.3c-18.1,0-32.8-0.1-32.8-0.3c0-0.2,14.7-0.3,32.8-0.3
						C137.2,435.1,151.9,435.2,151.9,435.4z"/>
				</g>
			</g>
			<g>
				<g>
					<path fill="#375A64" d="M151.9,443.6c0,0.2-14.7,0.3-32.8,0.3c-18.1,0-32.8-0.1-32.8-0.3c0-0.2,14.7-0.3,32.8-0.3
						C137.2,443.3,151.9,443.4,151.9,443.6z"/>
				</g>
			</g>
			<g>
				<g>
					<g>
						<g>
							<rect x="84.4" y="312" fill="#E1E1E1" width="67.5" height="65.3"/>
						</g>
					</g>
				</g>
				<g>
					<g>
						<g>
							<polygon fill="#16BAC5" points="89.6,371.7 108.3,338.1 123.6,359.6 132.9,348.2 146.7,371.7 							"/>
						</g>
					</g>
				</g>
				<g>
					<g>
						<g>
							<path fill="#16BAC5" d="M130.1,331.6c0,2.7-2.2,4.9-4.9,4.9c-2.7,0-4.9-2.2-4.9-4.9c0-2.7,2.2-4.9,4.9-4.9
								C127.9,326.7,130.1,328.9,130.1,331.6z"/>
						</g>
					</g>
				</g>
				<g>
					<g>
						<g>
							<g>
								<path fill="#375A64" d="M146.7,371.9c0,0,0-0.1,0-0.3c0-0.2,0-0.4,0-0.8c0-0.7,0-1.7,0-2.9c0-2.6,0-6.3-0.1-11.1
									c0-9.5-0.1-23.1-0.1-39.5l0.3,0.3c-16.5,0-36.1,0-57.1,0c-0.1,0.1,0.6-0.6,0.3-0.3v0v0v0.1v0.1v0.2v0.5v0.9v1.9
									c0,1.2,0,2.5,0,3.7c0,2.4,0,4.9,0,7.3c0,4.8,0,9.5,0,14.1c0,9.2,0,17.8,0,25.8l-0.3-0.3c17,0.1,31.3,0.1,41.3,0.1
									c5,0,8.9,0.1,11.6,0.1c1.3,0,2.4,0,3.1,0c0.3,0,0.6,0,0.8,0C146.6,371.9,146.7,371.9,146.7,371.9c0,0-0.1,0-0.2,0
									c-0.2,0-0.4,0-0.8,0c-0.7,0-1.7,0-3,0c-2.7,0-6.6,0-11.6,0.1c-10,0-24.3,0.1-41.4,0.1l-0.3,0v-0.3c0-8,0-16.6,0-25.8
									c0-4.6,0-9.3,0-14.1c0-2.4,0-4.8,0-7.3c0-1.2,0-2.5,0-3.7v-1.9l0-0.9v-0.5v-0.2v-0.1v-0.1v0v0c-0.3,0.3,0.4-0.4,0.3-0.3
									c20.9,0,40.5,0,57.1,0h0.3l0,0.3c-0.1,16.4-0.1,30-0.1,39.6c0,4.7-0.1,8.5-0.1,11c0,1.2,0,2.2,0,2.9c0,0.3,0,0.5,0,0.7
									C146.7,371.8,146.7,371.9,146.7,371.9z"/>
							</g>
						</g>
					</g>
				</g>
			</g>
			<g>
				<g>
					<g>
						<g>
							<rect x="171.4" y="406.8" fill="#E1E1E1" width="47.8" height="46.2"/>
						</g>
					</g>
				</g>
				<g>
					<g>
						<g>
							<polygon fill="#6CC5A4" points="175.1,449.1 188.3,425.3 199.1,440.5 205.7,432.4 215.5,449.1 							"/>
						</g>
					</g>
				</g>
				<g>
					<g>
						<g>
							<path fill="#6CC5A4" d="M203.7,420.7c0,1.9-1.5,3.4-3.4,3.4c-1.9,0-3.4-1.5-3.4-3.4c0-1.9,1.5-3.4,3.4-3.4
								C202.2,417.2,203.7,418.8,203.7,420.7z"/>
						</g>
					</g>
				</g>
				<g>
					<g>
						<g>
							<g>
								<path fill="#375A64" d="M215.5,449.2c0,0,0-0.1,0-0.2c0-0.1,0-0.3,0-0.5c0-0.5,0-1.2,0-2.1c0-1.8,0-4.5-0.1-7.9
									c0-6.8-0.1-16.4-0.1-27.9l0.2,0.2c-11.7,0-25.6,0-40.4,0c-0.1,0,0.4-0.4,0.2-0.2v0v0v0v0.1v0.2v0.3v0.7v1.3
									c0,0.9,0,1.7,0,2.6c0,1.7,0,3.4,0,5.1c0,3.4,0,6.7,0,10c0,6.5,0,12.6,0,18.2l-0.2-0.2c12.1,0,22.1,0.1,29.2,0.1
									c3.5,0,6.3,0,8.2,0.1c0.9,0,1.7,0,2.2,0c0.2,0,0.4,0,0.6,0C215.4,449.2,215.5,449.2,215.5,449.2c0,0-0.1,0-0.2,0
									c-0.1,0-0.3,0-0.5,0c-0.5,0-1.2,0-2.1,0c-1.9,0-4.7,0-8.2,0.1c-7.1,0-17.2,0.1-29.3,0.1h-0.2v-0.2c0-5.6,0-11.8,0-18.2
									c0-3.2,0-6.6,0-10c0-1.7,0-3.4,0-5.1c0-0.9,0-1.7,0-2.6v-1.3l0-0.7v-0.3v-0.2v-0.1v0v0v0c-0.2,0.2,0.3-0.3,0.2-0.2
									c14.8,0,28.7,0,40.4,0l0.2,0l0,0.2c0,11.6-0.1,21.3-0.1,28c0,3.3,0,6-0.1,7.8c0,0.9,0,1.6,0,2c0,0.2,0,0.4,0,0.5
									C215.5,449.2,215.5,449.2,215.5,449.2z"/>
							</g>
						</g>
					</g>
				</g>
			</g>
		</g>
	</g>
	<g>
		<path fill="#04DBC0" d="M308.4,52.5c0,17.5-14.2,31.8-31.8,31.8s-31.8-14.2-31.8-31.8s14.2-31.8,31.8-31.8S308.4,35,308.4,52.5z"
			/>
		<path fill="#FFFFFF" d="M272.2,63.8l-10.7-10.7l4.1-4.1l6.6,6.6l15.3-15.3l4.1,4.1L272.2,63.8z"/>
	</g>
	<g>
		<path fill="#04DBC0" d="M488.4,49.5c0,17.5-14.2,31.8-31.8,31.8s-31.8-14.2-31.8-31.8s14.2-31.8,31.8-31.8S488.4,32,488.4,49.5z"
			/>
		<path fill="#FFFFFF" d="M452.2,60.8l-10.7-10.7l4.1-4.1l6.6,6.6l15.3-15.3l4.1,4.1L452.2,60.8z"/>
	</g>
	<g>
		<path fill="#04DBC0" d="M416.4,265.5c0,17.5-14.2,31.8-31.8,31.8s-31.8-14.2-31.8-31.8c0-17.5,14.2-31.8,31.8-31.8
			S416.4,248,416.4,265.5z"/>
		<path fill="#FFFFFF" d="M380.2,276.8l-10.7-10.7l4.1-4.1l6.6,6.6l15.3-15.3l4.1,4.1L380.2,276.8z"/>
	</g>
</g>
</svg>
