<?xml version="1.0" encoding="utf-8"?>
<!-- Generator: Adobe Illustrator 22.0.0, SVG Export Plug-In . SVG Version: 6.00 Build 0)  -->
<svg version="1.1" id="Layer_1" xmlns="http://www.w3.org/2000/svg" xmlns:xlink="http://www.w3.org/1999/xlink" x="0px" y="0px"
	 viewBox="0 0 512 512" enable-background="new 0 0 512 512" xml:space="preserve">
<g>
	<polygon fill="#2B5A77" points="378.6,252.7 390.5,255.1 382.3,262 	"/>
	<g>
		<g>
			<g>
				<g>
					<g>
						<path fill="#A9A9A9" d="M43.4,84h103.9c14,0,25.4,11.4,25.4,25.4v244.8c0,14-11.4,25.4-25.4,25.4H37.1c-14,0-19-11.4-19-25.4
							v-79.4V169.3v-60C18.1,95.4,29.4,84,43.4,84z"/>
						<path fill="#474747" d="M37.1,376.8c-13.5,0-16.3-12.3-16.3-22.6V109.4c0-12.5,10.2-22.6,22.6-22.6h103.9
							c12.5,0,22.6,10.2,22.6,22.6v244.8c0,12.5-10.2,22.6-22.6,22.6H37.1z"/>
						<path fill="#021E0E" d="M79.4,98.9h29.2c0.6,0,1.1,0.7,1.1,1.6c0,0.9-0.5,1.6-1.1,1.6H79.4c-0.6,0-1.1-0.7-1.1-1.6
							C78.3,99.6,78.8,98.9,79.4,98.9z"/>
					</g>
					<path fill="#16BAC5" d="M145.5,90.2h-10l-9.7,11.9c-2.4,2.9-5.9,4.6-9.7,4.6H75c-3.7,0-7.3-1.7-9.7-4.6l-9.7-11.9h-10
						c-12,0-21.8,9.9-21.8,22.1v238.9c0,10.1,2.7,22.1,15.7,22.1h106c12,0,21.8-9.9,21.8-22.1V112.3
						C167.2,100.1,157.5,90.2,145.5,90.2z"/>
					<path fill="#D9D9D9" d="M171.6,196.2c0,43.3-0.1,78.4-0.3,78.4c-0.2,0-0.3-35.1-0.3-78.4c0-43.3,0.1-78.4,0.3-78.4
						C171.5,117.8,171.6,152.9,171.6,196.2z"/>
					<path fill="#D9D9D9" d="M19.6,196.2c0,43.3-0.1,78.4-0.3,78.4c-0.2,0-0.3-35.1-0.3-78.4c0-43.3,0.1-78.4,0.3-78.4
						C19.5,117.8,19.6,152.9,19.6,196.2z"/>
					<path fill="#D9D9D9" d="M96.1,85.4c-24.5,0-44.3-0.1-44.3-0.3c0-0.2,19.8-0.3,44.3-0.3c24.5,0,44.3,0.1,44.3,0.3
						C140.5,85.3,120.6,85.4,96.1,85.4z"/>
					<path fill="#021E0E" d="M115.3,100.3c0,1-0.8,1.8-1.8,1.8c-1,0-1.8-0.8-1.8-1.8c0-1,0.8-1.8,1.8-1.8
						C114.6,98.5,115.3,99.3,115.3,100.3z"/>
					<path fill="#D9D9D9" d="M94.1,378.4c-24.5,0-44.3-0.1-44.3-0.3c0-0.2,19.8-0.3,44.3-0.3c24.5,0,44.3,0.1,44.3,0.3
						C138.4,378.2,118.6,378.4,94.1,378.4z"/>
				</g>
			</g>
		</g>
		<g>
			<g>
				<path id="XMLID_117_" fill="#293036" d="M442.6,445l-197.3-0.2c-1.4,0-2.6-1.2-2.6-2.6l0.1-126.5c0-4.4,3.6-8,8-8l186.6,0.1
					c4.4,0,8,3.6,8,8l-0.1,126.5C445.2,443.8,444,445,442.6,445"/>
				<polyline id="XMLID_118_" fill="#16BAC5" points="437.6,437.8 250.3,437.7 250.4,314.9 437.7,315 437.6,437.8 				"/>
				<path id="XMLID_248_" fill="#939597" d="M487.7,489.6l-287.3-0.2c-3.5,0-6.3-2.8-6.3-6.3v-0.2l299.8,0.2l0,0.2
					C493.9,486.8,491.1,489.6,487.7,489.6z"/>
				<path id="XMLID_249_" fill="#D0D3D4" d="M487,484.8l-286-0.2c-5.2,0-8.1-1-6.4-2.3l45.5-35.6c1.6-1.3,5.8-2.3,9.2-2.3l190.2,0.1
					c3.5,0,7.6,1,9.2,2.3l44.8,35.7C495.1,483.7,492.2,484.8,487,484.8z"/>
				<polygon id="XMLID_250_" fill="#BCBEC0" points="399,482 289.1,482 296.5,467.7 391.8,467.8 				"/>
				<path id="XMLID_251_" fill="#939597" d="M261.5,449.5l-8.8,0c-0.5,0-0.8-0.1-0.6-0.3l3.4-3.1c0.2-0.2,0.8-0.3,1.2-0.3l8.4,0
					c0.5,0,0.8,0.1,0.6,0.3l-3,3.1C262.6,449.3,262.1,449.5,261.5,449.5z"/>
				<path id="XMLID_252_" fill="#939597" d="M274,449.5l-8.8,0c-0.5,0-0.8-0.1-0.6-0.3l2.9-3.1c0.2-0.2,0.7-0.3,1.2-0.3l8.4,0
					c0.5,0,0.8,0.1,0.6,0.3l-2.5,3.1C275,449.4,274.5,449.5,274,449.5z"/>
				<path id="XMLID_253_" fill="#939597" d="M286.4,449.5l-8.8,0c-0.5,0-0.8-0.1-0.7-0.3l2.5-3.1c0.1-0.2,0.7-0.3,1.2-0.3l8.4,0
					c0.5,0,0.8,0.1,0.7,0.3l-2.1,3.1C287.4,449.4,286.9,449.5,286.4,449.5z"/>
				<path id="XMLID_254_" fill="#939597" d="M298.8,449.5l-8.8,0c-0.5,0-0.8-0.1-0.7-0.3l2-3.1c0.1-0.2,0.6-0.3,1.1-0.3l8.4,0
					c0.5,0,0.8,0.1,0.7,0.3l-1.6,3.1C299.8,449.4,299.3,449.5,298.8,449.5z"/>
				<path id="XMLID_255_" fill="#939597" d="M311.3,449.5l-8.8,0c-0.5,0-0.9-0.1-0.8-0.3l1.6-3.1c0.1-0.2,0.6-0.3,1.1-0.3l8.4,0
					c0.5,0,0.8,0.1,0.8,0.3l-1.2,3.1C312.2,449.4,311.8,449.5,311.3,449.5z"/>
				<path id="XMLID_256_" fill="#939597" d="M323.7,449.5l-8.8,0c-0.5,0-0.9-0.1-0.8-0.3l1.1-3.1c0.1-0.2,0.5-0.3,1-0.3l8.4,0
					c0.5,0,0.9,0.1,0.8,0.3l-0.7,3.1C324.7,449.4,324.3,449.5,323.7,449.5z"/>
				<path id="XMLID_257_" fill="#939597" d="M336.2,449.6l-8.8,0c-0.5,0-0.9-0.1-0.9-0.3l0.7-3.1c0-0.2,0.5-0.3,1-0.3l8.4,0
					c0.5,0,0.9,0.1,0.9,0.3l-0.3,3.1C337.1,449.4,336.7,449.6,336.2,449.6z"/>
				<path id="XMLID_258_" fill="#939597" d="M348.6,449.6l-8.8,0c-0.5,0-0.9-0.1-0.9-0.3l0.2-3.1c0-0.2,0.4-0.3,0.9-0.3l8.4,0
					c0.5,0,0.9,0.1,0.9,0.3l0.2,3.1C349.5,449.4,349.1,449.6,348.6,449.6z"/>
				<path id="XMLID_259_" fill="#939597" d="M361,449.6l-8.8,0c-0.5,0-0.9-0.1-1-0.3l-0.2-3.1c0-0.2,0.4-0.3,0.9-0.3l8.4,0
					c0.5,0,0.9,0.1,1,0.3l0.6,3.1C361.9,449.4,361.5,449.6,361,449.6z"/>
				<path id="XMLID_260_" fill="#939597" d="M373.5,449.6l-8.8,0c-0.5,0-1-0.1-1-0.3l-0.7-3.1c0-0.2,0.3-0.3,0.8-0.3l8.4,0
					c0.5,0,0.9,0.1,1,0.3l1,3.1C374.3,449.4,374,449.6,373.5,449.6z"/>
				<path id="XMLID_261_" fill="#939597" d="M386.5,449.6l-8.8,0c-0.5,0-1-0.1-1.1-0.3l-1.1-3.1c-0.1-0.2,0.3-0.3,0.8-0.3l8.4,0
					c0.5,0,1,0.1,1.1,0.3l1.5,3.1C387.3,449.4,387,449.6,386.5,449.6z"/>
				<path id="XMLID_262_" fill="#939597" d="M398.9,449.6l-8.8,0c-0.5,0-1-0.1-1.1-0.3l-1.6-3.1c-0.1-0.2,0.2-0.3,0.7-0.3l8.4,0
					c0.5,0,1,0.1,1.1,0.3l2,3.1C399.8,449.5,399.4,449.6,398.9,449.6z"/>
				<path id="XMLID_263_" fill="#939597" d="M411.3,449.6l-8.8,0c-0.5,0-1-0.1-1.1-0.3l-2-3.1c-0.1-0.2,0.2-0.3,0.7-0.3l8.4,0
					c0.5,0,1,0.1,1.1,0.3l2.4,3.1C412.2,449.5,411.9,449.6,411.3,449.6z"/>
				<path id="XMLID_264_" fill="#939597" d="M423.8,449.6l-8.8,0c-0.5,0-1.1-0.1-1.2-0.3l-2.5-3.1c-0.1-0.2,0.1-0.3,0.6-0.3l8.4,0
					c0.5,0,1,0.1,1.2,0.3l2.9,3.1C424.6,449.5,424.3,449.6,423.8,449.6z"/>
				<path id="XMLID_265_" fill="#939597" d="M436.2,449.6l-8.8,0c-0.5,0-1.1-0.1-1.2-0.3l-2.9-3.1c-0.2-0.2,0.1-0.3,0.6-0.3l8.4,0
					c0.5,0,1,0.1,1.2,0.3l3.3,3.1C437,449.5,436.7,449.6,436.2,449.6z"/>
				<path id="XMLID_266_" fill="#939597" d="M262.8,453.7l-14.7,0c-0.5,0-0.8-0.1-0.6-0.3l3.4-3.1c0.2-0.2,0.8-0.3,1.3-0.3l14,0
					c0.5,0,0.8,0.1,0.6,0.3l-2.8,3.1C263.9,453.6,263.4,453.7,262.8,453.7z"/>
				<path id="XMLID_267_" fill="#939597" d="M275.7,453.7l-9.2,0c-0.5,0-0.8-0.1-0.7-0.3l2.7-3.1c0.2-0.2,0.7-0.3,1.2-0.3l8.8,0
					c0.5,0,0.8,0.1,0.7,0.3l-2.3,3.1C276.8,453.6,276.3,453.7,275.7,453.7z"/>
				<path id="XMLID_268_" fill="#939597" d="M288.8,453.8l-9.2,0c-0.5,0-0.9-0.1-0.7-0.3l2.3-3.1c0.1-0.2,0.7-0.3,1.2-0.3l8.8,0
					c0.5,0,0.8,0.1,0.7,0.3l-1.9,3.1C289.9,453.6,289.3,453.8,288.8,453.8z"/>
				<path id="XMLID_269_" fill="#939597" d="M301.8,453.8l-9.2,0c-0.5,0-0.9-0.1-0.8-0.3l1.8-3.1c0.1-0.2,0.6-0.3,1.1-0.3l8.8,0
					c0.5,0,0.9,0.1,0.8,0.3l-1.4,3.1C302.9,453.6,302.4,453.8,301.8,453.8z"/>
				<path id="XMLID_270_" fill="#939597" d="M314.9,453.8l-9.2,0c-0.5,0-0.9-0.1-0.8-0.3l1.4-3.1c0.1-0.2,0.6-0.3,1.1-0.3l8.8,0
					c0.5,0,0.9,0.1,0.8,0.3l-1,3.1C316,453.6,315.5,453.8,314.9,453.8z"/>
				<path id="XMLID_271_" fill="#939597" d="M328,453.8l-9.2,0c-0.5,0-0.9-0.1-0.9-0.3l0.9-3.1c0.1-0.2,0.5-0.3,1-0.3l8.8,0
					c0.5,0,0.9,0.1,0.9,0.3l-0.6,3.1C329,453.6,328.5,453.8,328,453.8z"/>
				<path id="XMLID_272_" fill="#939597" d="M341,453.8l-9.2,0c-0.5,0-1-0.1-0.9-0.3l0.5-3.1c0-0.2,0.5-0.3,1-0.3l8.8,0
					c0.5,0,0.9,0.1,0.9,0.3l-0.1,3.1C342,453.7,341.6,453.8,341,453.8z"/>
				<path id="XMLID_273_" fill="#939597" d="M354.1,453.8l-9.2,0c-0.5,0-1-0.1-1-0.3l0-3.1c0-0.2,0.4-0.3,0.9-0.3l8.8,0
					c0.5,0,1,0.1,1,0.3l0.3,3.1C355.1,453.7,354.6,453.8,354.1,453.8z"/>
				<path id="XMLID_274_" fill="#939597" d="M367.1,453.8l-9.2,0c-0.5,0-1-0.1-1-0.3l-0.4-3.1c0-0.2,0.4-0.3,0.9-0.3l8.8,0
					c0.5,0,1,0.1,1,0.3l0.8,3.1C368.1,453.7,367.7,453.8,367.1,453.8z"/>
				<path id="XMLID_275_" fill="#939597" d="M380.8,453.8l-9.2,0c-0.5,0-1-0.1-1.1-0.3l-0.9-3.1c-0.1-0.2,0.3-0.3,0.8-0.3l8.8,0
					c0.5,0,1,0.1,1.1,0.3l1.3,3.1C381.7,453.7,381.4,453.8,380.8,453.8z"/>
				<path id="XMLID_276_" fill="#939597" d="M393.9,453.8l-9.2,0c-0.5,0-1-0.1-1.1-0.3l-1.3-3.1c-0.1-0.2,0.3-0.3,0.8-0.3l8.8,0
					c0.5,0,1,0.1,1.1,0.3l1.7,3.1C394.8,453.7,394.4,453.8,393.9,453.8z"/>
				<path id="XMLID_277_" fill="#939597" d="M406.9,453.9l-9.2,0c-0.5,0-1.1-0.1-1.2-0.3l-1.8-3.1c-0.1-0.2,0.2-0.3,0.8-0.3l8.8,0
					c0.5,0,1,0.1,1.2,0.3l2.1,3.1C407.8,453.7,407.5,453.9,406.9,453.9z"/>
				<path id="XMLID_278_" fill="#939597" d="M420,453.9l-9.2,0c-0.5,0-1.1-0.1-1.2-0.3l-2.2-3.1c-0.1-0.2,0.2-0.3,0.7-0.3l8.8,0
					c0.5,0,1.1,0.1,1.2,0.3l2.6,3.1C420.8,453.7,420.5,453.9,420,453.9z"/>
				<path id="XMLID_279_" fill="#939597" d="M440.7,453.9l-16.9,0c-0.5,0-1.1-0.1-1.3-0.3l-2.7-3.1c-0.2-0.2,0.1-0.3,0.7-0.3l16.2,0
					c0.5,0,1.1,0.1,1.3,0.3l3.3,3.1C441.6,453.7,441.3,453.9,440.7,453.9z"/>
				<path id="XMLID_280_" fill="#939597" d="M251,466.6l-16.8,0c-0.6,0-1-0.1-0.8-0.3l3.4-3.1c0.2-0.2,0.8-0.3,1.4-0.3l16.2,0
					c0.6,0,0.9,0.1,0.8,0.3l-2.8,3.1C252.2,466.5,251.6,466.6,251,466.6z"/>
				<path id="XMLID_281_" fill="#939597" d="M265.7,466.6l-10.5,0c-0.6,0-1-0.1-0.8-0.3l2.7-3.1c0.2-0.2,0.8-0.3,1.4-0.3l10.2,0
					c0.6,0,1,0.1,0.8,0.3l-2.3,3.1C267,466.5,266.4,466.6,265.7,466.6z"/>
				<path id="XMLID_282_" fill="#939597" d="M280.7,466.6l-10.5,0c-0.6,0-1-0.1-0.9-0.3l2.3-3.1c0.1-0.2,0.7-0.3,1.3-0.3l10.2,0
					c0.6,0,1,0.1,0.9,0.3l-1.9,3.1C281.9,466.5,281.3,466.6,280.7,466.6z"/>
				<path id="XMLID_283_" fill="#939597" d="M295.6,466.6l-10.5,0c-0.6,0-1-0.1-0.9-0.3l1.8-3.1c0.1-0.2,0.7-0.3,1.3-0.3l10.2,0
					c0.6,0,1,0.1,0.9,0.3l-1.4,3.1C296.8,466.5,296.2,466.6,295.6,466.6z"/>
				<path id="XMLID_284_" fill="#939597" d="M379,466.7l-78.7-0.1c-0.6,0-1.1-0.1-1-0.3l1.4-3.1c0.1-0.2,0.6-0.3,1.2-0.3l75.8,0.1
					c0.6,0,1.1,0.1,1.2,0.3l1,3.1C380,466.6,379.6,466.7,379,466.7z"/>
				<path id="XMLID_285_" fill="#939597" d="M393.9,466.7l-10.5,0c-0.6,0-1.2-0.1-1.2-0.3l-1.1-3.1c-0.1-0.2,0.4-0.3,1-0.3l10.2,0
					c0.6,0,1.2,0.1,1.2,0.3l1.5,3.1C395,466.6,394.5,466.7,393.9,466.7z"/>
				<path id="XMLID_286_" fill="#939597" d="M408.8,466.7l-10.5,0c-0.6,0-1.2-0.1-1.3-0.3l-1.6-3.1c-0.1-0.2,0.3-0.3,0.9-0.3l10.2,0
					c0.6,0,1.2,0.1,1.3,0.3l1.9,3.1C409.9,466.6,409.5,466.7,408.8,466.7z"/>
				<path id="XMLID_287_" fill="#939597" d="M423.8,466.7l-10.5,0c-0.6,0-1.2-0.1-1.3-0.3l-2-3.1c-0.1-0.2,0.3-0.3,0.9-0.3l10.2,0
					c0.6,0,1.2,0.1,1.3,0.3l2.4,3.1C424.8,466.6,424.4,466.7,423.8,466.7z"/>
				<path id="XMLID_288_" fill="#939597" d="M438.7,466.8l-10.5,0c-0.6,0-1.2-0.1-1.4-0.3l-2.4-3.1c-0.1-0.2,0.2-0.3,0.8-0.3l10.2,0
					c0.6,0,1.2,0.1,1.4,0.3l2.8,3.1C439.7,466.6,439.3,466.8,438.7,466.8z"/>
				<path id="XMLID_289_" fill="#939597" d="M453.7,466.8l-10.5,0c-0.6,0-1.3-0.1-1.4-0.3l-2.9-3.1c-0.2-0.2,0.2-0.3,0.8-0.3l10.2,0
					c0.6,0,1.2,0.1,1.4,0.3l3.3,3.1C454.6,466.6,454.3,466.8,453.7,466.8z"/>
				<path id="XMLID_290_" fill="#939597" d="M266.6,458l-23,0c-0.6,0-0.9-0.1-0.7-0.3l3.4-3.1c0.2-0.2,0.8-0.3,1.3-0.3l22.1,0
					c0.5,0,0.9,0.1,0.7,0.3l-2.5,3.1C267.7,457.8,267.2,458,266.6,458z"/>
				<path id="XMLID_291_" fill="#939597" d="M280.4,458l-9.6,0c-0.6,0-0.9-0.1-0.8-0.3l2.5-3.1c0.1-0.2,0.7-0.3,1.2-0.3l9.3,0
					c0.5,0,0.9,0.1,0.8,0.3l-2.1,3.1C281.5,457.9,280.9,458,280.4,458z"/>
				<path id="XMLID_292_" fill="#939597" d="M294,458l-9.6,0c-0.6,0-0.9-0.1-0.8-0.3l2-3.1c0.1-0.2,0.7-0.3,1.2-0.3l9.3,0
					c0.5,0,0.9,0.1,0.8,0.3l-1.6,3.1C295.1,457.9,294.6,458,294,458z"/>
				<path id="XMLID_293_" fill="#939597" d="M307.8,458l-9.6,0c-0.6,0-1-0.1-0.9-0.3l1.6-3.1c0.1-0.2,0.6-0.3,1.2-0.3l9.3,0
					c0.5,0,0.9,0.1,0.9,0.3l-1.2,3.1C308.8,457.9,308.3,458,307.8,458z"/>
				<path id="XMLID_294_" fill="#939597" d="M321.4,458l-9.6,0c-0.6,0-1-0.1-0.9-0.3l1.1-3.1c0.1-0.2,0.6-0.3,1.1-0.3l9.3,0
					c0.5,0,1,0.1,0.9,0.3l-0.7,3.1C322.5,457.9,322,458,321.4,458z"/>
				<path id="XMLID_295_" fill="#939597" d="M335.1,458l-9.6,0c-0.6,0-1-0.1-1-0.3l0.7-3.1c0-0.2,0.5-0.3,1.1-0.3l9.3,0
					c0.5,0,1,0.1,1,0.3l-0.3,3.1C336.1,457.9,335.7,458,335.1,458z"/>
				<path id="XMLID_296_" fill="#939597" d="M348.8,458l-9.6,0c-0.6,0-1-0.1-1-0.3l0.2-3.1c0-0.2,0.5-0.3,1-0.3l9.3,0
					c0.5,0,1,0.1,1,0.3l0.2,3.1C349.8,457.9,349.3,458,348.8,458z"/>
				<path id="XMLID_297_" fill="#939597" d="M362.4,458.1l-9.6,0c-0.6,0-1-0.1-1-0.3l-0.2-3.1c0-0.2,0.4-0.3,1-0.3l9.3,0
					c0.5,0,1,0.1,1,0.3l0.6,3.1C363.4,457.9,363,458.1,362.4,458.1z"/>
				<path id="XMLID_298_" fill="#939597" d="M376.1,458.1l-9.6,0c-0.6,0-1.1-0.1-1.1-0.3l-0.7-3.1c0-0.2,0.4-0.3,0.9-0.3l9.3,0
					c0.5,0,1,0.1,1.1,0.3l1,3.1C377.1,457.9,376.7,458.1,376.1,458.1z"/>
				<path id="XMLID_299_" fill="#939597" d="M389.8,458.1l-9.6,0c-0.6,0-1.1-0.1-1.1-0.3l-1.1-3.1c-0.1-0.2,0.3-0.3,0.9-0.3l9.3,0
					c0.5,0,1.1,0.1,1.1,0.3l1.5,3.1C390.7,457.9,390.3,458.1,389.8,458.1z"/>
				<path id="XMLID_300_" fill="#939597" d="M403.4,458.1l-9.6,0c-0.6,0-1.1-0.1-1.2-0.3l-1.6-3.1c-0.1-0.2,0.3-0.3,0.8-0.3l9.3,0
					c0.5,0,1.1,0.1,1.2,0.3l1.9,3.1C404.4,457.9,404,458.1,403.4,458.1z"/>
				<path id="XMLID_301_" fill="#939597" d="M417.1,458.1l-9.6,0c-0.6,0-1.1-0.1-1.2-0.3l-2-3.1c-0.1-0.2,0.2-0.3,0.8-0.3l9.3,0
					c0.5,0,1.1,0.1,1.2,0.3l2.4,3.1C418,458,417.7,458.1,417.1,458.1z"/>
				<path id="XMLID_302_" fill="#939597" d="M430.8,458.1l-9.6,0c-0.6,0-1.1-0.1-1.3-0.3l-2.4-3.1c-0.1-0.2,0.2-0.3,0.7-0.3l9.3,0
					c0.5,0,1.1,0.1,1.3,0.3l2.8,3.1C431.7,458,431.4,458.1,430.8,458.1z"/>
				<path id="XMLID_303_" fill="#939597" d="M444.5,458.1l-9.6,0c-0.6,0-1.2-0.1-1.3-0.3l-2.9-3.1c-0.2-0.2,0.1-0.3,0.7-0.3l9.3,0
					c0.5,0,1.1,0.1,1.3,0.3l3.3,3.1C445.4,458,445.1,458.1,444.5,458.1z"/>
				<path id="XMLID_304_" fill="#939597" d="M271.3,462.3l-32.4,0c-0.6,0-0.9-0.1-0.7-0.3l3.4-3.1c0.2-0.2,0.8-0.3,1.4-0.3l31.2,0
					c0.6,0,0.9,0.1,0.8,0.3l-2.3,3.1C272.4,462.2,271.9,462.3,271.3,462.3z"/>
				<path id="XMLID_305_" fill="#939597" d="M285.5,462.3l-10.1,0c-0.6,0-1-0.1-0.8-0.3l2.2-3.1c0.1-0.2,0.7-0.3,1.3-0.3l9.7,0
					c0.6,0,0.9,0.1,0.8,0.3l-1.8,3.1C286.7,462.2,286.1,462.3,285.5,462.3z"/>
				<path id="XMLID_306_" fill="#939597" d="M299.9,462.3l-10.1,0c-0.6,0-1-0.1-0.9-0.3l1.8-3.1c0.1-0.2,0.6-0.3,1.2-0.3l9.7,0
					c0.6,0,1,0.1,0.9,0.3l-1.4,3.1C301,462.2,300.5,462.3,299.9,462.3z"/>
				<path id="XMLID_307_" fill="#939597" d="M314.2,462.3l-10.1,0c-0.6,0-1-0.1-0.9-0.3l1.3-3.1c0.1-0.2,0.6-0.3,1.2-0.3l9.7,0
					c0.6,0,1,0.1,0.9,0.3l-0.9,3.1C315.3,462.2,314.8,462.3,314.2,462.3z"/>
				<path id="XMLID_308_" fill="#939597" d="M328.5,462.4l-10.1,0c-0.6,0-1-0.1-1-0.3l0.9-3.1c0.1-0.2,0.6-0.3,1.1-0.3l9.7,0
					c0.6,0,1,0.1,1,0.3l-0.5,3.1C329.6,462.2,329.1,462.4,328.5,462.4z"/>
				<path id="XMLID_309_" fill="#939597" d="M342.8,462.4l-10.1,0c-0.6,0-1.1-0.1-1-0.3l0.4-3.1c0-0.2,0.5-0.3,1.1-0.3l9.7,0
					c0.6,0,1,0.1,1,0.3l0,3.1C343.9,462.2,343.4,462.4,342.8,462.4z"/>
				<path id="XMLID_310_" fill="#939597" d="M357.1,462.4l-10.1,0c-0.6,0-1.1-0.1-1.1-0.3l0-3.1c0-0.2,0.5-0.3,1-0.3l9.7,0
					c0.6,0,1.1,0.1,1.1,0.3l0.4,3.1C358.2,462.2,357.7,462.4,357.1,462.4z"/>
				<path id="XMLID_311_" fill="#939597" d="M371.4,462.4l-10.1,0c-0.6,0-1.1-0.1-1.1-0.3l-0.5-3.1c0-0.2,0.4-0.3,1-0.3l9.7,0
					c0.6,0,1.1,0.1,1.1,0.3l0.9,3.1C372.4,462.2,372,462.4,371.4,462.4z"/>
				<path id="XMLID_312_" fill="#939597" d="M385.7,462.4l-10.1,0c-0.6,0-1.1-0.1-1.2-0.3l-0.9-3.1c-0.1-0.2,0.4-0.3,0.9-0.3l9.7,0
					c0.6,0,1.1,0.1,1.2,0.3l1.3,3.1C386.7,462.3,386.3,462.4,385.7,462.4z"/>
				<path id="XMLID_313_" fill="#939597" d="M400,462.4l-10.1,0c-0.6,0-1.1-0.1-1.2-0.3l-1.4-3.1c-0.1-0.2,0.3-0.3,0.9-0.3l9.7,0
					c0.6,0,1.1,0.1,1.2,0.3l1.7,3.1C401,462.3,400.6,462.4,400,462.4z"/>
				<path id="XMLID_314_" fill="#939597" d="M414.3,462.4l-10.1,0c-0.6,0-1.2-0.1-1.3-0.3l-1.8-3.1c-0.1-0.2,0.3-0.3,0.8-0.3l9.7,0
					c0.6,0,1.1,0.1,1.3,0.3l2.2,3.1C415.3,462.3,414.9,462.4,414.3,462.4z"/>
				<path id="XMLID_315_" fill="#939597" d="M428.6,462.4l-10.1,0c-0.6,0-1.2-0.1-1.3-0.3l-2.3-3.1c-0.1-0.2,0.2-0.3,0.8-0.3l9.7,0
					c0.6,0,1.2,0.1,1.3,0.3l2.6,3.1C429.5,462.3,429.2,462.4,428.6,462.4z"/>
				<path id="XMLID_316_" fill="#939597" d="M449.1,462.5l-16.2,0c-0.6,0-1.2-0.1-1.4-0.3l-2.7-3.1c-0.2-0.2,0.2-0.3,0.7-0.3l15.6,0
					c0.6,0,1.2,0.1,1.4,0.3l3.3,3.1C450,462.3,449.7,462.5,449.1,462.5z"/>
				<path id="XMLID_317_" fill="#F1F2F2" d="M493.7,482.6c-0.8,0.7-3.2,1.1-6.7,1.1l-286-0.2c-3.4,0-5.9-0.5-6.6-1.1
					c-1.2,1.2,1.7,2.1,6.6,2.1l286,0.2C492,484.8,494.8,483.8,493.7,482.6z"/>
			</g>
		</g>
		<g>
			<path fill="#FED954" d="M40.1,241.2l123.3,6.7l7.7-46.9c0.2-2.9-2.1-5.4-5-5.6l-78-4.2c0,0-7.2-6.8-8.6-8.2
				c-1.5-1.4-2.4-2.2-4.1-2.2L43.6,179c-2.9-0.2-5.4,2.1-5.6,5L40.1,241.2z"/>
			<path fill="#FEB500" d="M40.5,243.2l122.3,6.6l8.2-46.9c0.2-2.9-2.1-5.4-5-5.6l-78-4.2c0,0-6.4-6.1-8.6-8.2
				c-1.5-1.4-2.4-2.2-4.1-2.2L43.5,181c-2.9-0.2-5.4,2.1-5.6,5L40.5,243.2z"/>
			<path fill="#E7A412" d="M38.3,194.9l2.2,48.3l122.3,6.6l5.9-33.8C138.1,218.1,73.9,212.1,38.3,194.9z"/>
			<g>
				<g>
					<polygon fill="#6CC5A4" points="122.2,151.1 60.8,155 67.2,255.2 147,250.1 141.8,168.8 					"/>
					<polygon opacity="0.36" fill="#E7DEAC" points="132.5,172.8 122.2,151.1 141.8,168.8 					"/>
					<polygon fill="#E7DEAC" points="129,171 122.2,151.1 141.8,168.8 					"/>
				</g>
				<g>
					
						<rect x="78.8" y="165.6" transform="matrix(0.998 -6.386525e-02 6.386525e-02 0.998 -10.4476 6.8296)" fill="#FFFFFF" width="45.6" height="2.4"/>
					
						<rect x="73.2" y="182.3" transform="matrix(0.998 -6.386527e-02 6.386527e-02 0.998 -11.5116 6.9319)" fill="#FFFFFF" width="58.9" height="2.4"/>
					
						<rect x="73.8" y="191.3" transform="matrix(0.998 -6.386527e-02 6.386527e-02 0.998 -12.0826 6.9868)" fill="#FFFFFF" width="58.9" height="2.4"/>
					
						<rect x="74.4" y="200.2" transform="matrix(0.998 -6.386753e-02 6.386753e-02 0.998 -12.6541 7.042)" fill="#FFFFFF" width="58.9" height="2.4"/>
					
						<rect x="75" y="209.2" transform="matrix(0.998 -6.386753e-02 6.386753e-02 0.998 -13.2252 7.0969)" fill="#FFFFFF" width="58.9" height="2.4"/>
					
						<rect x="75.5" y="218.2" transform="matrix(0.998 -6.386527e-02 6.386527e-02 0.998 -13.7958 7.1515)" fill="#FFFFFF" width="58.9" height="2.4"/>
					
						<rect x="76.1" y="227.1" transform="matrix(0.998 -6.386527e-02 6.386527e-02 0.998 -14.3668 7.2064)" fill="#FFFFFF" width="58.9" height="2.4"/>
					
						<rect x="76.7" y="236.1" transform="matrix(0.998 -6.386527e-02 6.386527e-02 0.998 -14.9379 7.2614)" fill="#FFFFFF" width="58.9" height="2.4"/>
				</g>
			</g>
			<polygon opacity="0.63" fill="#E7DEAC" points="64.1,207.4 67.2,255.2 147,250.1 144.6,211.8 			"/>
			<path fill="#FED954" d="M154,287l-108.2-5.9c-1.5-0.1-2.8-1.1-3.1-2.6l-15.3-59.4c0-0.6,0.1-2.1,0.1-2.5c0.1-1.8,1.7-3.3,3.6-3.2
				l144.9,7.9c2,0.1,3.4,1.8,3.2,3.7c0,0.3,0,1.8-0.1,2.4l-21.6,57.3C156.9,286.2,155.5,287.1,154,287z"/>
			<path fill="#FEB500" d="M153.9,289.2l-108.2-5.9c-1.5-0.1-2.8-1.1-3.1-2.6l-15.1-60.8c-0.6-2.2,1.2-4.4,3.5-4.2l144.9,7.9
				c2.3,0.1,3.8,2.4,3,4.6L157.3,287C156.8,288.4,155.4,289.3,153.9,289.2z"/>
			<path fill="#E7A412" d="M33.5,215.8l-2.6-0.1c-2.3-0.1-4.1,2-3.5,4.2l15.1,60.8c0.4,1.5,1.6,2.5,3.1,2.6l108.2,5.9
				c1.5,0.1,2.9-0.8,3.4-2.2l9.3-25.3C118.2,279.2,59.4,254.7,33.5,215.8z"/>
			<path fill="#E7A412" d="M60.1,238.3c15.8,11.6,34.7,19.8,53.3,23.1c6.4,1.1,12.3,1.8,17.7,2.1c15.7,0.9,27.8-1.3,36.3-4l3-8.2
				c-9.9,4-28.3,8.4-55.9,3.5C97,251.8,79,244,64,233c-7-5.1-13.1-10.8-17.9-16.5l-8.8-0.5C42.7,223.7,50.6,231.4,60.1,238.3z"/>
		</g>
		<g>
			<g>
				<polygon fill="#6CC5A4" points="337.5,223.7 279.6,231.7 292.7,326.2 368,315.8 357.3,239.1 				"/>
				<polygon opacity="0.36" fill="#E7DEAC" points="279.6,231.7 286.8,283.7 298.6,229.1 				"/>
				<polygon opacity="0.36" fill="#E7DEAC" points="348.7,243.6 337.5,223.7 357.3,239.1 				"/>
				<polygon fill="#E7DEAC" points="345.4,242.1 337.5,223.7 357.3,239.1 				"/>
			</g>
			<g>
				
					<rect x="297.5" y="238.9" transform="matrix(0.9905 -0.1374 0.1374 0.9905 -29.9492 46.1064)" fill="#FFFFFF" width="43.3" height="2.3"/>
				
					<rect x="293.3" y="254.6" transform="matrix(0.9905 -0.1374 0.1374 0.9905 -32.0909 46.5565)" fill="#FFFFFF" width="55.9" height="2.3"/>
				
					<rect x="294.5" y="263.1" transform="matrix(0.9905 -0.1374 0.1374 0.9905 -33.2401 46.7975)" fill="#FFFFFF" width="55.9" height="2.3"/>
				
					<rect x="295.7" y="271.5" transform="matrix(0.9905 -0.1374 0.1374 0.9905 -34.3893 47.0384)" fill="#FFFFFF" width="55.9" height="2.3"/>
				
					<rect x="296.8" y="280" transform="matrix(0.9905 -0.1374 0.1374 0.9905 -35.5386 47.2795)" fill="#FFFFFF" width="55.9" height="2.3"/>
				
					<rect x="298" y="288.4" transform="matrix(0.9905 -0.1374 0.1374 0.9905 -36.6877 47.5204)" fill="#FFFFFF" width="55.9" height="2.3"/>
				
					<rect x="299.2" y="296.9" transform="matrix(0.9905 -0.1374 0.1374 0.9905 -37.837 47.7615)" fill="#FFFFFF" width="55.9" height="2.3"/>
				
					<rect x="300.3" y="305.3" transform="matrix(0.9905 -0.1374 0.1374 0.9905 -38.9855 48.0015)" fill="#FFFFFF" width="55.9" height="2.3"/>
			</g>
		</g>
		<g>
			<path fill="#FED954" d="M288.9,384.2l104.5-0.1l4.3-40c0-2.5-2-4.5-4.5-4.5l-66.1,0.1c0,0-6.4-5.4-7.7-6.5
				c-1.3-1.1-2.2-1.7-3.5-1.7l-26.9,0c-2.5,0-4.5,2-4.5,4.5L288.9,384.2z"/>
			<path fill="#FEB500" d="M289.4,385.9l103.7-0.1l4.7-40c0-2.5-2-4.5-4.5-4.5l-66.1,0.1c0,0-5.7-4.9-7.7-6.5
				c-1.4-1.1-2.2-1.7-3.5-1.7l-26.9,0c-2.5,0-4.5,2-4.5,4.5L289.4,385.9z"/>
			<path fill="#E7A412" d="M285.3,345.1l4.1,40.7l103.7-0.1l3.4-28.8C370.7,360.1,316.2,358,285.3,345.1z"/>
			<g>
				<g>
					<polygon fill="#6CC5A4" points="354.2,304.2 302.4,310.4 312.5,394.8 379.8,386.7 371.5,318.2 					"/>
					<polygon opacity="0.36" fill="#E7DEAC" points="363.8,322.1 354.2,304.2 371.5,318.2 					"/>
					<polygon fill="#E7DEAC" points="360.8,320.7 354.2,304.2 371.5,318.2 					"/>
				</g>
				<g>
					
						<rect x="318.2" y="317.4" transform="matrix(0.9929 -0.1191 0.1191 0.9929 -35.524 42.4527)" fill="#FFFFFF" width="38.6" height="2.1"/>
					
						<rect x="314.2" y="331.5" transform="matrix(0.9929 -0.1191 0.1191 0.9929 -37.1863 42.7535)" fill="#FFFFFF" width="49.8" height="2.1"/>
					
						<rect x="315.1" y="339" transform="matrix(0.9929 -0.1191 0.1191 0.9929 -38.0786 42.915)" fill="#FFFFFF" width="49.8" height="2.1"/>
					
						<rect x="316" y="346.6" transform="matrix(0.9929 -0.1191 0.1191 0.9929 -38.9709 43.0765)" fill="#FFFFFF" width="49.8" height="2.1"/>
					
						<rect x="316.9" y="354.1" transform="matrix(0.9929 -0.1191 0.1191 0.9929 -39.8633 43.238)" fill="#FFFFFF" width="49.8" height="2.1"/>
					
						<rect x="317.8" y="361.7" transform="matrix(0.9929 -0.1191 0.1191 0.9929 -40.7556 43.3995)" fill="#FFFFFF" width="49.8" height="2.1"/>
					
						<rect x="318.7" y="369.2" transform="matrix(0.9929 -0.1191 0.1191 0.9929 -41.6479 43.561)" fill="#FFFFFF" width="49.8" height="2.1"/>
					
						<rect x="319.6" y="376.8" transform="matrix(0.9929 -0.1191 0.1191 0.9929 -42.5402 43.7225)" fill="#FFFFFF" width="49.8" height="2.1"/>
				</g>
			</g>
			<polygon opacity="0.63" fill="#E7DEAC" points="307.7,354.5 312.5,394.8 379.8,386.7 375.9,354.4 			"/>
			<path fill="#FED954" d="M387.4,417.6l-91.8,0.1c-1.3,0-2.4-0.8-2.8-2l-15.7-49.5c0-0.5,0-1.8,0-2.1c0-1.5,1.3-2.9,2.9-2.9
				l122.8-0.2c1.7,0,2.9,1.4,2.9,2.9c0,0.3,0,1.5,0,2.1l-15.6,49.5C389.8,416.8,388.7,417.6,387.4,417.6z"/>
			<path fill="#FEB500" d="M387.4,419.5l-91.8,0.1c-1.3,0-2.4-0.8-2.8-2l-15.6-50.7c-0.6-1.9,0.8-3.7,2.8-3.7l122.8-0.2
				c1.9,0,3.3,1.9,2.8,3.7l-15.5,50.8C389.8,418.6,388.7,419.5,387.4,419.5z"/>
			<path fill="#E7A412" d="M282.2,363.1l-2.2,0c-1.9,0-3.3,1.9-2.8,3.7l15.6,50.7c0.4,1.2,1.5,2,2.8,2l91.8-0.1
				c1.3,0,2.4-0.8,2.8-2.1l6.7-21.8C356.8,412.7,305.9,394.7,282.2,363.1z"/>
			<path fill="#E7A412" d="M305.7,380.9c13.9,9.1,30.3,15.1,46.1,17c5.4,0.7,10.5,0.9,15.1,0.9c13.3,0,23.4-2.4,30.5-5.1l2.1-7
				c-8.2,3.8-23.5,8.5-47,5.6c-15-1.8-30.5-7.6-43.7-16.2c-6.2-4-11.6-8.5-15.9-13.1l-7.5,0C290.4,369.3,297.4,375.4,305.7,380.9z"
				/>
		</g>
		<g>
			<g>
				<polygon fill="#6CC5A4" points="185.8,111.7 130.2,130.1 160.2,220.7 232.3,196.8 208,123.3 				"/>
				<polygon opacity="0.36" fill="#E7DEAC" points="200.4,129.3 185.8,111.7 208,123.3 				"/>
				<polygon fill="#E7DEAC" points="196.8,128.4 185.8,111.7 208,123.3 				"/>
			</g>
			<g>
				
					<rect x="148.9" y="130" transform="matrix(0.9494 -0.3142 0.3142 0.9494 -32.5732 60.2323)" fill="#FFFFFF" width="43.3" height="2.3"/>
				
					<rect x="147.6" y="145.1" transform="matrix(0.9494 -0.3142 0.3142 0.9494 -37.0594 62.5643)" fill="#FFFFFF" width="55.9" height="2.3"/>
				
					<rect x="150.3" y="153.2" transform="matrix(0.9494 -0.3142 0.3142 0.9494 -39.4672 63.8155)" fill="#FFFFFF" width="55.9" height="2.3"/>
				
					<rect x="153" y="161.3" transform="matrix(0.9494 -0.3142 0.3142 0.9494 -41.8754 65.0678)" fill="#FFFFFF" width="55.9" height="2.3"/>
				
					<rect x="155.6" y="169.4" transform="matrix(0.9494 -0.3142 0.3142 0.9494 -44.2835 66.3197)" fill="#FFFFFF" width="55.9" height="2.3"/>
				
					<rect x="158.3" y="177.5" transform="matrix(0.9494 -0.3142 0.3142 0.9494 -46.6911 67.5708)" fill="#FFFFFF" width="55.9" height="2.3"/>
				
					<rect x="161" y="185.6" transform="matrix(0.9494 -0.3142 0.3142 0.9494 -49.0994 68.8231)" fill="#FFFFFF" width="55.9" height="2.3"/>
				
					<rect x="163.7" y="193.7" transform="matrix(0.9494 -0.3142 0.3142 0.9494 -51.5071 70.0744)" fill="#FFFFFF" width="55.9" height="2.3"/>
			</g>
			<polygon opacity="0.36" fill="#E7DEAC" points="195.3,188.7 232.3,196.7 208.9,126.1 			"/>
		</g>
		<g>
			<g>
				<polygon fill="#6CC5A4" points="296.9,156 233.7,142.3 211.4,245.4 293.4,263.1 311.6,179.5 				"/>
				<polygon opacity="0.36" fill="#E7DEAC" points="300.9,180.9 296.9,156 311.6,179.5 				"/>
				<polygon fill="#E7DEAC" points="298,178.1 296.9,156 311.6,179.5 				"/>
			</g>
			<g>
				
					<rect x="247.6" y="164.7" transform="matrix(0.9773 0.2118 -0.2118 0.9773 41.3235 -53.7466)" fill="#FFFFFF" width="47.8" height="2.6"/>
				
					<rect x="236.9" y="181.9" transform="matrix(0.9773 0.2118 -0.2118 0.9773 44.874 -52.57)" fill="#FFFFFF" width="61.8" height="2.6"/>
				
					<rect x="234.9" y="191.1" transform="matrix(0.9773 0.2118 -0.2118 0.9773 46.7795 -51.9383)" fill="#FFFFFF" width="61.8" height="2.6"/>
				
					<rect x="232.9" y="200.3" transform="matrix(0.9773 0.2118 -0.2118 0.9773 48.6844 -51.306)" fill="#FFFFFF" width="61.8" height="2.6"/>
				
					<rect x="230.9" y="209.5" transform="matrix(0.9773 0.2118 -0.2118 0.9773 50.5898 -50.6743)" fill="#FFFFFF" width="61.8" height="2.6"/>
				
					<rect x="228.9" y="218.7" transform="matrix(0.9773 0.2118 -0.2118 0.9773 52.4959 -50.0429)" fill="#FFFFFF" width="61.8" height="2.6"/>
				
					<rect x="226.9" y="227.9" transform="matrix(0.9773 0.2118 -0.2118 0.9773 54.4015 -49.4112)" fill="#FFFFFF" width="61.8" height="2.6"/>
				
					<rect x="224.9" y="237.1" transform="matrix(0.9773 0.2118 -0.2118 0.9773 56.3063 -48.779)" fill="#FFFFFF" width="61.8" height="2.6"/>
			</g>
		</g>
		<path fill="none" stroke="#2B5A77" stroke-miterlimit="10" stroke-dasharray="5.1369" d="M92.2,60.2
			c22.9-22.6,67.3-50.5,148.5-18.3c31.8,12.6,59.6,33.6,89.8,49.6c11.2,6,23.2,11.3,35.9,11.9c12.7,0.6,26.4-4.4,33-15.2
			c3.2-5.2,4.6-11.8,3-17.7c-3.3-12-18.5-17.9-30.4-14c-11.9,3.9-20.2,14.9-24.4,26.6c-5.6,15.4-5.3,32.9,0.9,48.1
			c11.9,29.5,43.5,48.2,53.4,78.5c5.2,15.9,3.6,33.6-2.3,49.3c-5.8,15.7-15.7,29.7-26.9,42.2"/>
		<g opacity="0.48">
			<path fill="none" stroke="#2B5A77" stroke-miterlimit="10" stroke-dasharray="5.1369" d="M405.4,191.7
				c10.4,15.1,15.3,45.5,6.4,65.7"/>
			<path fill="none" stroke="#2B5A77" stroke-miterlimit="10" stroke-dasharray="5.1369" d="M351.7,60.4c4.1-4.7,16.9-17.7,33.1-14"
				/>
			<path fill="none" stroke="#2B5A77" stroke-miterlimit="10" stroke-dasharray="5.1369" d="M414.3,82.7
				c-5.7,20.2-25.8,33.4-40.8,31.8"/>
			<path fill="none" stroke="#2B5A77" stroke-miterlimit="10" stroke-dasharray="5.1369" d="M203.9,22.4c44.6,8.2,85,33.5,99.5,45.1
				"/>
			<path fill="none" stroke="#2B5A77" stroke-miterlimit="10" stroke-dasharray="5.1369" d="M299.6,82.8c8.9,5.2,14.7,8.9,24.4,13.9
				"/>
		</g>
	</g>
</g>
</svg>
