<?xml version="1.0" encoding="utf-8"?>
<!-- Generator: Adobe Illustrator 22.0.0, SVG Export Plug-In . SVG Version: 6.00 Build 0)  -->
<svg version="1.1" id="Layer_1" xmlns="http://www.w3.org/2000/svg" xmlns:xlink="http://www.w3.org/1999/xlink" x="0px" y="0px"
	 viewBox="0 0 512 512" style="enable-background:new 0 0 512 512;" xml:space="preserve">
<style type="text/css">
	.st0{fill:#6CC5A4;}
	.st1{fill:#FFFFFF;}
	.st2{fill:#BEE4F1;}
	.st3{fill:#16BAC5;}
</style>
<path class="st0" d="M192,512H32c-17.7,0-32-14.3-32-32V32C0,14.3,14.3,0,32,0h160c17.7,0,32,14.3,32,32v448
	C224,497.7,209.7,512,192,512z"/>
<path class="st0" d="M480,512H320c-17.7,0-32-14.3-32-32V32c0-17.7,14.3-32,32-32h160c17.7,0,32,14.3,32,32v448
	C512,497.7,497.7,512,480,512z"/>
<g>
	<path class="st1" d="M64,64h96v32H64V64z"/>
	<path class="st1" d="M64,128h96v32H64V128z"/>
	<path class="st1" d="M352,64h96v32h-96V64z"/>
	<path class="st1" d="M352,128h96v32h-96V128z"/>
</g>
<path class="st2" d="M378.3,196.7l-22.6,22.6l20.7,20.7H134.6l20.7-20.7l-22.6-22.6L73.4,256l59.3,59.3l22.6-22.6L134.6,272h241.8
	l-20.7,20.7l22.6,22.6l59.3-59.3L378.3,196.7z"/>
<path class="st1" d="M384,384h32v32h-32V384z"/>
<path class="st1" d="M96,384h32v32H96V384z"/>
<g>
	<path class="st3" d="M355.5,256c0,55.2-44.8,100-100,100s-100-44.8-100-100s44.8-100,100-100S355.5,200.8,355.5,256z"/>
	<path class="st1" d="M305,223.1l-16.6-16.6l-32.9,32.9l-32.9-32.9L206,223.1l32.9,32.9L206,288.9l16.6,16.6l32.9-32.9l32.9,32.9
		l16.6-16.6L272.1,256L305,223.1z"/>
</g>
</svg>
