<?xml version="1.0" encoding="utf-8"?>
<!-- Generator: Adobe Illustrator 22.0.0, SVG Export Plug-In . SVG Version: 6.00 Build 0)  -->
<svg version="1.1" id="Layer_1" xmlns="http://www.w3.org/2000/svg" xmlns:xlink="http://www.w3.org/1999/xlink" x="0px" y="0px"
	 viewBox="0 0 511 511" style="enable-background:new 0 0 511 511;" xml:space="preserve">
<style type="text/css">
	.st0{fill:#16BAC5;}
	.st1{fill:#6CC5A4;}
	.st2{fill:#FFFFFF;}
</style>
<path class="st0" d="M511,255.5h-31.9c0-123.3-100.3-223.6-223.6-223.6S32,132.2,32,255.5H0C0,114.6,114.7,0,255.5,0
	S511,114.6,511,255.5z"/>
<path class="st0" d="M111.8,255.5H79.9c0-96.8,78.8-175.6,175.7-175.6c25.3,0,49.8,5.3,72.7,15.7L315,124.6
	c-18.7-8.5-38.7-12.9-59.4-12.9C176.3,111.8,111.8,176.2,111.8,255.5z"/>
<path class="st1" d="M248.7,511c-12,0-24.1-2.4-35.5-7.3c-25.9-11-44.9-32.9-52.2-60.1c-7.3-27.2-1.7-55.7,15.2-78.2L394.9,75.6
	l-56.5,358.7c-4.4,27.8-21,51.6-45.6,65.2C279,507.1,263.9,511,248.7,511z"/>
<path class="st2" d="M239.6,399.2h31.9v31.9h-31.9V399.2z"/>
<g>
	<path class="st0" d="M0,287.4H32v31.9H0L0,287.4z"/>
	<path class="st0" d="M399.2,287.4h31.9v31.9h-31.9V287.4z"/>
	<path class="st0" d="M479.1,287.4H511v31.9h-31.9V287.4z"/>
	<path class="st0" d="M79.9,287.4h31.9v31.9H79.9V287.4z"/>
</g>
</svg>
