<?xml version="1.0" encoding="utf-8"?>
<!-- Generator: Adobe Illustrator 22.0.0, SVG Export Plug-In . SVG Version: 6.00 Build 0)  -->
<svg version="1.1" id="Layer_1" xmlns="http://www.w3.org/2000/svg" xmlns:xlink="http://www.w3.org/1999/xlink" x="0px" y="0px"
	 viewBox="0 0 512 512" style="enable-background:new 0 0 512 512;" xml:space="preserve">
<style type="text/css">
	.st0{fill:#E4EDFB;}
	.st1{fill:#16BAC5;}
	.st2{fill:#FFFFFF;}
	.st3{fill:#6CC5A4;}
</style>
<g>
	<path class="st0" d="M266.6,328.2v146.4c0,6.7,5.5,12.2,12.2,12.2h170.8c6.7,0,12.2-5.5,12.2-12.2V328.2H266.6z"/>
	<path class="st1" d="M266.6,291.6h195.2v48.8H266.6V291.6z"/>
	<path class="st2" d="M291,309.9h12.2v12.2H291V309.9z"/>
	<path class="st2" d="M315.4,309.9h12.2v12.2h-12.2V309.9z"/>
	<path class="st0" d="M431.3,322.1h-85.4c-3.4,0-6.1-2.7-6.1-6.1c0-3.4,2.7-6.1,6.1-6.1h85.4c3.4,0,6.1,2.7,6.1,6.1
		C437.4,319.3,434.7,322.1,431.3,322.1z"/>
	<path class="st3" d="M449.6,486.8H339.8v-23c0-6.9,3.9-13.3,10.1-16.4l26.5-13.2v-5.9l-12.2-12.2v-19.5c0-15.9,11.6-30.2,27.4-31.7
		c18.2-1.8,33.5,12.5,33.5,30.4v20.8L413,428.3v5.9l26.5,13.2c6.2,3.1,10.1,9.4,10.1,16.4V486.8z"/>
</g>
<g>
	<path class="st0" d="M18.1,166.8v146.4c0,6.7,5.5,12.2,12.2,12.2h170.8c6.7,0,12.2-5.5,12.2-12.2V166.8H18.1z"/>
	<path class="st1" d="M18.1,130.2h195.2V179H18.1V130.2z"/>
	<path class="st2" d="M42.5,148.5h12.2v12.2H42.5V148.5z"/>
	<path class="st2" d="M66.9,148.5h12.2v12.2H66.9V148.5z"/>
	<path class="st0" d="M182.8,160.7H97.4c-3.4,0-6.1-2.7-6.1-6.1s2.7-6.1,6.1-6.1h85.4c3.4,0,6.1,2.7,6.1,6.1
		S186.2,160.7,182.8,160.7z"/>
	<path class="st3" d="M201.1,325.4H91.3v-23c0-6.9,3.9-13.3,10.1-16.4l26.5-13.2v-5.9l-12.2-12.2v-19.5c0-15.9,11.6-30.2,27.4-31.7
		c18.2-1.8,33.5,12.5,33.5,30.4v20.8l-12.2,12.2v5.9L191,286c6.2,3.1,10.1,9.4,10.1,16.4V325.4z"/>
</g>
<g>
	<path class="st0" d="M303.2,50.9v146.4c0,6.7,5.5,12.2,12.2,12.2h170.8c6.7,0,12.2-5.5,12.2-12.2V50.9H303.2z"/>
	<path class="st1" d="M303.2,14.3h195.2v48.8H303.2V14.3z"/>
	<path class="st2" d="M327.6,32.6h12.2v12.2h-12.2V32.6z"/>
	<path class="st2" d="M352,32.6h12.2v12.2H352V32.6z"/>
	<path class="st0" d="M467.9,44.8h-85.4c-3.4,0-6.1-2.7-6.1-6.1s2.7-6.1,6.1-6.1h85.4c3.4,0,6.1,2.7,6.1,6.1S471.3,44.8,467.9,44.8z
		"/>
	<path class="st3" d="M486.2,209.5H376.4v-23c0-6.9,3.9-13.3,10.1-16.4l26.5-13.2V151l-12.2-12.2v-19.5c0-15.9,11.6-30.2,27.4-31.7
		c18.2-1.8,33.5,12.5,33.5,30.4v20.8L449.6,151v5.9l26.5,13.2c6.2,3.1,10.1,9.4,10.1,16.4V209.5z"/>
</g>
</svg>
